<svg width="216.3" height="136.2" viewBox="0 0 216.3 136.2" xmlns="http://www.w3.org/2000/svg" xmlns:xlink="http://www.w3.org/1999/xlink" overflow="hidden"><defs></defs><g><linearGradient x1="29.1839" y1="36.1039" x2="186.648" y2="36.1039" gradientUnits="userSpaceOnUse" id="SVGID_1_"><stop offset="0" stop-color="#C80610"/><stop offset="0.0682853" stop-color="#D41116"/><stop offset="0.2166" stop-color="#E7231F"/><stop offset="0.3887" stop-color="#F53026"/><stop offset="0.6041" stop-color="#FD382A"/><stop offset="1" stop-color="#FF3A2B"/></linearGradient><linearGradient x1="51.9326" y1="19.3314" x2="165.676" y2="19.3314" gradientUnits="userSpaceOnUse" id="SVGID_3_"><stop offset="0" stop-color="#C80610"/><stop offset="0.0682853" stop-color="#D41116"/><stop offset="0.2166" stop-color="#E7231F"/><stop offset="0.3887" stop-color="#F53026"/><stop offset="0.6041" stop-color="#FD382A"/><stop offset="1" stop-color="#FF3A2B"/></linearGradient><path d="M165.7 27.1 51.9 27.1C50.9 27.1 50.1 28.2 50.1 29.5L50.1 29.5C50.1 30.8 50.9 31.9 51.9 31.9L165.6 31.9C166.6 31.9 167.4 30.8 167.4 29.5L167.4 29.5C167.5 28.1 166.7 27.1 165.7 27.1Z" fill="#FFECBE"/><path d="M108.2 6.7 76.5 31.3C76 31.7 76.3 32.4 76.9 32.4L140.8 32.4C141.4 32.4 141.6 31.7 141.2 31.3L109.4 6.7C109 6.7 108.7 6.7 108.2 6.7Z" fill="#ECB07D"/><path d="M107.2 0.6 73 27.3C71.9 28.1 71.7 29.6 72.4 30.8L72.4 30.8C73.2 32.2 75 32.5 76.3 31.5L107.2 7.5C108.2 6.8 109.5 6.8 110.4 7.5L141.3 31.5C142.6 32.5 144.4 32.1 145.2 30.8L145.2 30.8C145.9 29.7 145.6 28.2 144.6 27.3L110.4 0.6C109.5-0.2 108.1-0.2 107.2 0.6Z" fill="#FFECBE"/><path d="M165.1 27.4 50.7 27.4C46.3 27.4 42.1 29.4 39.3 32.7L29.2 44.8 186.7 44.8 176.6 32.7C173.7 29.3 169.5 27.4 165.1 27.4Z" fill="url(#SVGID_1_)"/><g><g><linearGradient x1="4.7222" y1="84.9489" x2="211.557" y2="84.9489" gradientUnits="userSpaceOnUse" id="SVGID_2_"><stop offset="0" stop-color="#C80610"/><stop offset="0.0682853" stop-color="#D41116"/><stop offset="0.2166" stop-color="#E7231F"/><stop offset="0.3887" stop-color="#F53026"/><stop offset="0.6041" stop-color="#FD382A"/><stop offset="1" stop-color="#FF3A2B"/></linearGradient><rect x="4.7" y="53.5" width="206.8" height="62.9" fill="url(#SVGID_2_)"/></g><g><path d="M212.5 120 5.6 120C3.8 120 2.3 121.5 2.3 123.3L2.3 130.9C2.3 131.4 2.7 131.8 3.2 131.8L213 131.8C213.5 131.8 213.9 131.4 213.9 130.9L213.9 121.5C213.9 120.6 213.3 120 212.5 120Z" fill="#D34A09"/><path d="M213 120 3.2 120C2.7 120 2.3 120.4 2.3 120.9L2.3 120.9C2.3 121.4 2.7 121.8 3.2 121.8L213 121.8C213.5 121.8 213.9 121.4 213.9 120.9L213.9 120.9C213.9 120.4 213.5 120 213 120Z" fill="#764231"/><path d="M214.5 116.4 1.8 116.4C0.8 116.4 0 117.2 0 118.2L0 118.2C0 119.2 0.8 120 1.8 120L214.5 120C215.5 120 216.3 119.2 216.3 118.2L216.3 118.2C216.3 117.2 215.5 116.4 214.5 116.4Z" fill="#FFECBE"/></g><g><path d="M211.6 42.8 4.7 42.8C3.4 42.8 2.3 43.6 2.3 44.6L2.3 44.6C2.3 45.6 3.4 46.4 4.7 46.4L211.5 46.4C212.8 46.4 213.9 45.6 213.9 44.6L213.9 44.6C213.9 43.6 212.9 42.8 211.6 42.8Z" fill="#ECB07D"/><path d="M211.6 41.1 4.7 41.1C3.4 41.1 2.3 41.9 2.3 42.9L2.3 42.9C2.3 43.9 3.4 44.7 4.7 44.7L211.5 44.7C212.8 44.7 213.9 43.9 213.9 42.9L213.9 42.9C213.9 41.8 212.9 41.1 211.6 41.1Z" fill="#764231"/><path d="M210.7 53.5 6.4 53.5C5.7 53.5 5.3 54.3 5.7 54.9L5.7 54.9C5.9 55.1 6.1 55.3 6.4 55.3L210.7 55.3C211.2 55.3 211.6 54.9 211.6 54.4L211.6 54.4C211.6 53.9 211.2 53.5 210.7 53.5Z" fill="#BB7083"/><path d="M213.9 46.4 2.4 46.4C1.1 46.4 0 47.2 0 48.2L0 48.2C0 49.2 1.1 50 2.4 50L214 50C215.3 50 216.4 49.2 216.4 48.2L216.4 48.2C216.3 47.2 215.2 46.4 213.9 46.4Z" fill="#FFECBE"/><path d="M213.9 39.3 2.4 39.3C1.1 39.3 0 40.1 0 41.1L0 41.1C0 42.1 1.1 42.9 2.4 42.9L214 42.9C215.3 42.9 216.4 42.1 216.4 41.1L216.4 41.1C216.3 40.1 215.2 39.3 213.9 39.3Z" fill="#FFECBE"/><path d="M213 49.9 3.2 49.9C2.7 49.9 2.3 50.3 2.3 50.8L2.3 52.6C2.3 53.1 2.7 53.5 3.2 53.5L213 53.5C213.5 53.5 213.9 53.1 213.9 52.6L213.9 50.8C213.9 50.3 213.5 49.9 213 49.9Z" fill="#ECB07D"/><path d="M213 49.9 3.2 49.9C2.7 49.9 2.3 50.3 2.3 50.8L2.3 50.8C2.3 51.3 2.7 51.7 3.2 51.7L213 51.7C213.5 51.7 213.9 51.3 213.9 50.8L213.9 50.8C213.9 50.3 213.5 49.9 213 49.9Z" fill="#764231"/></g></g><path d="M128.4 10.6 89.2 10.6C74.8 10.6 61.1 17 51.9 28.1L51.9 28.1 165.6 28.1 165.6 28.1C156.4 17 142.8 10.6 128.4 10.6Z" fill="url(#SVGID_3_)"/><g><g><g><path d="M19.8 105.1 17.6 105.1C17.1 105.1 16.7 104.9 16.6 104.5L16.6 104.3C16.5 103.9 17 103.6 17.6 103.6L19.8 103.6C20.4 103.6 20.8 103.9 20.8 104.3L20.8 104.4C20.8 104.8 20.3 105.1 19.8 105.1Z" fill="#C00123"/></g><g><path d="M15.4 102.9 13.5 102.9C13 102.9 12.6 102.7 12.5 102.3L12.5 102.2C12.4 101.8 12.9 101.5 13.5 101.5L15.5 101.5C16.1 101.5 16.5 101.8 16.5 102.2L16.5 102.3C16.3 102.7 15.9 102.9 15.4 102.9Z" fill="#C00123"/></g><g><path d="M11 97.9 8.7 97.9C8.2 97.9 7.8 97.7 7.7 97.3L7.7 97.1C7.6 96.7 8.1 96.4 8.7 96.4L11 96.4C11.6 96.4 12 96.7 12 97.1L12 97.3C11.9 97.7 11.5 97.9 11 97.9Z" fill="#C00123"/></g><g><path d="M10.6 93.5 8.8 93.5C8.3 93.5 7.9 93.3 7.8 92.9L7.8 92.9C7.7 92.5 8.2 92.2 8.8 92.2L10.6 92.2C11.2 92.2 11.6 92.5 11.6 92.9L11.6 92.9C11.5 93.3 11.1 93.5 10.6 93.5Z" fill="#C00123"/></g></g><g><g><path d="M32.5 85.7 30.2 85.7C29.7 85.7 29.3 85.5 29.2 85.1L29.2 84.9C29.1 84.5 29.6 84.2 30.2 84.2L32.5 84.2C33.1 84.2 33.5 84.5 33.5 84.9L33.5 85.1C33.4 85.4 33 85.7 32.5 85.7Z" fill="#C00123"/></g><g><path d="M36.1 81.3 34.3 81.3C33.8 81.3 33.4 81.1 33.3 80.7L33.3 80.7C33.2 80.3 33.7 80 34.3 80L36.1 80C36.7 80 37.1 80.3 37.1 80.7L37.1 80.7C37 81 36.6 81.3 36.1 81.3Z" fill="#C00123"/></g><g><path d="M33.9 75.8 31.7 75.8C31.2 75.8 30.8 75.6 30.7 75.2L30.7 75C30.6 74.6 31.1 74.3 31.7 74.3L33.9 74.3C34.5 74.3 34.9 74.6 34.9 75L34.9 75.1C34.9 75.5 34.4 75.8 33.9 75.8Z" fill="#C00123"/></g><g><path d="M30.7 73.8 28.8 73.8C28.3 73.8 27.9 73.6 27.8 73.2L27.8 73.2C27.7 72.8 28.2 72.5 28.8 72.5L30.7 72.5C31.3 72.5 31.7 72.8 31.7 73.2L31.7 73.2C31.6 73.6 31.2 73.8 30.7 73.8Z" fill="#C00123"/></g><g><path d="M24.4 71.7 22.3 71.7C21.8 71.7 21.4 71.5 21.3 71.1L21.3 71C21.2 70.6 21.7 70.3 22.3 70.3L24.4 70.3C25 70.3 25.4 70.6 25.4 71L25.4 71.1C25.4 71.5 24.9 71.7 24.4 71.7Z" fill="#C00123"/></g></g><path d="M32.2 78.9 30.4 78.9C29.9 78.9 29.5 78.7 29.4 78.3L29.4 78.3C29.3 77.9 29.8 77.6 30.4 77.6L32.2 77.6C32.8 77.6 33.2 77.9 33.2 78.3L33.2 78.3C33.2 78.6 32.8 78.9 32.2 78.9Z" fill="#C00123"/><g><g><path d="M64.3 101 62.2 101C61.7 101 61.3 100.8 61.2 100.4L61.2 100.3C61.1 99.9 61.6 99.6 62.2 99.6L64.3 99.6C64.9 99.6 65.3 99.9 65.3 100.3L65.3 100.4C65.2 100.8 64.8 101 64.3 101Z" fill="#C00123"/></g><g><path d="M60.8 99.3 58.5 99.3C58 99.3 57.6 99.1 57.5 98.7L57.5 98.5C57.4 98.1 57.9 97.8 58.5 97.8L60.8 97.8C61.4 97.8 61.8 98.1 61.8 98.5L61.8 98.7C61.8 99 61.3 99.3 60.8 99.3Z" fill="#C00123"/></g><g><path d="M60.1 95.2 58 95.2C57.5 95.2 57.1 95 57 94.6L57 94.5C56.9 94.1 57.4 93.8 58 93.8L60.1 93.8C60.7 93.8 61.1 94.1 61.1 94.5L61.1 94.6C61.1 95 60.6 95.2 60.1 95.2Z" fill="#C00123"/></g><g><path d="M59.3 91.7 57.3 91.7C56.8 91.7 56.4 91.5 56.3 91.1L56.3 91C56.2 90.6 56.7 90.3 57.3 90.3L59.3 90.3C59.9 90.3 60.3 90.6 60.3 91L60.3 91.1C60.3 91.5 59.8 91.7 59.3 91.7Z" fill="#C00123"/></g><g><path d="M55.3 90.2 53.1 90.2C52.6 90.2 52.2 90 52.1 89.6L52.1 89.4C52 89 52.5 88.7 53.1 88.7L55.4 88.7C56 88.7 56.4 89 56.4 89.4L56.4 89.6C56.3 90 55.9 90.2 55.3 90.2Z" fill="#C00123"/></g><g><path d="M48 90.2 45.7 90.2C45.2 90.2 44.8 90 44.7 89.6L44.7 89.4C44.6 89 45.1 88.7 45.7 88.7L48 88.7C48.6 88.7 49 89 49 89.4L49 89.6C48.9 89.9 48.5 90.2 48 90.2Z" fill="#C00123"/></g></g><g><g><path d="M60 107.5 57.8 107.5C57.3 107.5 56.9 107.3 56.8 106.9L56.8 106.7C56.7 106.3 57.2 106 57.8 106L60 106C60.6 106 61 106.3 61 106.7L61 106.8C60.9 107.3 60.5 107.5 60 107.5Z" fill="#C00123"/></g><g><path d="M52.8 105.1 50.5 105.1C50 105.1 49.6 104.9 49.5 104.5L49.5 104.3C49.4 103.9 49.9 103.6 50.5 103.6L52.8 103.6C53.4 103.6 53.8 103.9 53.8 104.3L53.8 104.5C53.8 104.8 53.3 105.1 52.8 105.1Z" fill="#C00123"/></g></g><path d="M14.6 112.2 12.4 112.2C11.9 112.2 11.5 112 11.4 111.6L11.4 111.4C11.3 111 11.8 110.7 12.4 110.7L14.6 110.7C15.2 110.7 15.6 111 15.6 111.4L15.6 111.6C15.6 111.9 15.2 112.2 14.6 112.2Z" fill="#C00123"/><g><g><path d="M19.7 115.3 17.6 115.3C17.1 115.3 16.7 115.1 16.6 114.7L16.6 114.5C16.5 114.1 17 113.8 17.6 113.8L19.8 113.8C20.4 113.8 20.8 114.1 20.8 114.5L20.8 114.6C20.6 115.1 20.2 115.3 19.7 115.3Z" fill="#C00123"/></g><g><path d="M21.1 110 19.2 110C18.7 110 18.3 109.8 18.2 109.4L18.2 109.3C18.1 108.9 18.6 108.6 19.2 108.6L21.1 108.6C21.7 108.6 22.1 108.9 22.1 109.3L22.1 109.4C22.1 109.7 21.6 110 21.1 110Z" fill="#C00123"/></g></g><g><g><path d="M70.5 93.3 68.3 93.3C67.8 93.3 67.4 93.1 67.3 92.7L67.3 92.5C67.2 92.1 67.7 91.8 68.3 91.8L70.5 91.8C71.1 91.8 71.5 92.1 71.5 92.5L71.5 92.7C71.5 93.1 71 93.3 70.5 93.3Z" fill="#C00123"/></g><g><path d="M70.8 90 68.9 90C68.4 90 68 89.8 67.9 89.4L67.9 89.3C67.8 88.9 68.3 88.6 68.9 88.6L70.8 88.6C71.4 88.6 71.8 88.9 71.8 89.3L71.8 89.3C71.8 89.7 71.3 90 70.8 90Z" fill="#C00123"/></g><g><path d="M67 81 65 81C64.4 81 64 80.7 63.9 80.4L63.9 80.4C63.8 80 64.3 79.6 65 79.6L66.9 79.6C67.5 79.6 68 80 68 80.4L68 80.4C68 80.7 67.5 81 67 81Z" fill="#C00123"/></g></g><g><g><path d="M64.4 86.7 62.3 86.7C61.8 86.7 61.4 86.5 61.3 86.1L61.3 86C61.2 85.6 61.7 85.3 62.3 85.3L64.4 85.3C65 85.3 65.4 85.6 65.4 86L65.4 86.1C65.4 86.4 64.9 86.7 64.4 86.7Z" fill="#C00123"/></g><g><path d="M63.5 84 61.5 84C60.9 84 60.5 83.7 60.4 83.4L60.4 83.4C60.3 83 60.8 82.6 61.5 82.6L63.5 82.6C64.1 82.6 64.6 83 64.6 83.4L64.6 83.4C64.5 83.8 64 84 63.5 84Z" fill="#C00123"/></g><g><path d="M56.9 79.7 54.9 79.7C54.3 79.7 53.9 79.4 53.8 79.1L53.8 79.1C53.7 78.7 54.2 78.3 54.9 78.3L56.9 78.3C57.5 78.3 58 78.7 58 79.1L58 79.1C57.9 79.4 57.5 79.7 56.9 79.7Z" fill="#C00123"/></g></g><g><g><path d="M52.7 62.4 50.6 62.4C50.1 62.4 49.7 62.2 49.6 61.8L49.6 61.7C49.5 61.3 50 61 50.6 61L52.7 61C53.3 61 53.7 61.3 53.7 61.7L53.7 61.8C53.6 62.1 53.2 62.4 52.7 62.4Z" fill="#C00123"/></g><g><path d="M45.4 60.8 43.6 60.8C43.1 60.8 42.7 60.6 42.6 60.2L42.6 60.2C42.5 59.8 43 59.5 43.6 59.5L45.4 59.5C46 59.5 46.4 59.8 46.4 60.2L46.4 60.2C46.4 60.5 46 60.8 45.4 60.8Z" fill="#C00123"/></g><g><path d="M46.2 56.9 44 56.9C43.5 56.9 43.1 56.7 43 56.3L43 56.2C42.9 55.8 43.4 55.5 44 55.5L46.2 55.5C46.8 55.5 47.2 55.8 47.2 56.2L47.2 56.3C47.1 56.7 46.7 56.9 46.2 56.9Z" fill="#C00123"/></g><g><path d="M39.9 56.4 37.6 56.4C37.1 56.4 36.7 56.2 36.6 55.8L36.6 55.6C36.5 55.2 37 54.9 37.6 54.9L39.9 54.9C40.5 54.9 40.9 55.2 40.9 55.6L40.9 55.8C40.8 56.1 40.4 56.4 39.9 56.4Z" fill="#C00123"/></g></g><g><g><path d="M70.2 57.8 68 57.8C67.5 57.8 67.1 57.6 67 57.2L67 57.1C66.9 56.7 67.4 56.4 68 56.4L70.2 56.4C70.8 56.4 71.2 56.7 71.2 57.1L71.2 57.2C71.1 57.6 70.7 57.8 70.2 57.8Z" fill="#C00123"/></g><g><path d="M64.1 61.3 62.3 61.3C61.8 61.3 61.4 61.1 61.3 60.7L61.3 60.7C61.2 60.3 61.7 60 62.3 60L64.1 60C64.7 60 65.1 60.3 65.1 60.7L65.1 60.7C65.1 61 64.6 61.3 64.1 61.3Z" fill="#C00123"/></g><g><path d="M60 61.1 58 61.1C57.5 61.1 57.1 60.9 57 60.5L57 60.4C56.9 60 57.4 59.7 58 59.7L60 59.7C60.6 59.7 61 60 61 60.4L61 60.5C61 60.8 60.6 61.1 60 61.1Z" fill="#C00123"/></g><g><path d="M52.6 58.1 50.8 58.1C50.3 58.1 49.9 57.9 49.8 57.5L49.8 57.5C49.7 57.1 50.2 56.8 50.8 56.8L52.6 56.8C53.2 56.8 53.6 57.1 53.6 57.5L53.6 57.5C53.6 57.8 53.2 58.1 52.6 58.1Z" fill="#C00123"/></g></g><g><g><path d="M11.8 67.6 9.9 67.6C9.4 67.6 8.9 67.3 8.9 67L8.9 67C8.8 66.6 9.3 66.2 10 66.2L11.9 66.2C12.5 66.2 13 66.5 12.9 66.9L12.9 66.9C12.8 67.3 12.4 67.6 11.8 67.6Z" fill="#C00123"/></g><g><path d="M13.6 62.5 11.7 62.5C11.2 62.5 10.7 62.2 10.7 61.9L10.7 61.9C10.6 61.5 11.1 61.1 11.8 61.1L13.7 61.1C14.3 61.1 14.8 61.4 14.7 61.8L14.7 61.8C14.6 62.3 14.2 62.5 13.6 62.5Z" fill="#C00123"/></g><g><path d="M8.7 59.5 6.7 59.5C6.2 59.5 5.7 59.2 5.7 58.9L5.7 58.8C5.6 58.4 6.1 58 6.8 58L8.8 58C9.4 58 9.9 58.3 9.8 58.7L9.8 58.7C9.7 59.3 9.2 59.5 8.7 59.5Z" fill="#C00123"/></g></g><g><g><path d="M25.4 60.1 23.4 60.1C22.9 60.1 22.4 59.8 22.4 59.5L22.4 59.4C22.3 59 22.8 58.6 23.5 58.6L25.5 58.6C26.1 58.6 26.6 58.9 26.5 59.3L26.5 59.4C26.4 59.9 26 60.1 25.4 60.1Z" fill="#C00123"/></g><g><path d="M17.6 57.2 15.4 57.2C14.9 57.2 14.4 56.9 14.4 56.6L14.4 56.5C14.3 56.1 14.8 55.7 15.5 55.7L17.7 55.7C18.3 55.7 18.8 56 18.7 56.4L18.7 56.5C18.6 57 18.2 57.2 17.6 57.2Z" fill="#C00123"/></g></g><g><g><path d="M38.3 91.1 36.4 91.1C35.9 91.1 35.5 90.9 35.4 90.5L35.4 90.4C35.3 90 35.8 89.7 36.4 89.7L38.3 89.7C38.9 89.7 39.3 90 39.3 90.4L39.3 90.5C39.3 90.9 38.9 91.1 38.3 91.1Z" fill="#C00123"/></g><g><path d="M33.7 89.7 31.6 89.7C31.1 89.7 30.7 89.5 30.6 89.1L30.6 89C30.5 88.6 31 88.3 31.6 88.3L33.7 88.3C34.3 88.3 34.7 88.6 34.7 89L34.7 89.1C34.7 89.5 34.3 89.7 33.7 89.7Z" fill="#C00123"/></g><g><path d="M26.7 88 24.8 88C24.3 88 23.9 87.8 23.8 87.4L23.8 87.4C23.7 87 24.2 86.7 24.8 86.7L26.7 86.7C27.3 86.7 27.7 87 27.7 87.4L27.7 87.4C27.7 87.7 27.2 88 26.7 88Z" fill="#C00123"/></g><g><path d="M29.5 84.4 27.3 84.4C26.8 84.4 26.4 84.2 26.3 83.8L26.3 83.6C26.2 83.2 26.7 82.9 27.3 82.9L29.6 82.9C30.2 82.9 30.6 83.2 30.6 83.6L30.6 83.8C30.5 84.1 30.1 84.4 29.5 84.4Z" fill="#C00123"/></g><g><path d="M23 81.3 21 81.3C20.5 81.3 20.1 81.1 20 80.7L20 80.6C19.9 80.2 20.4 79.9 21 79.9L23 79.9C23.6 79.9 24 80.2 24 80.6L24 80.7C23.9 81 23.5 81.3 23 81.3Z" fill="#C00123"/></g></g><g><g><path d="M63.4 115.1 61.6 115.1C61.1 115.1 60.7 114.9 60.6 114.5L60.6 114.5C60.5 114.1 61 113.8 61.6 113.8L63.4 113.8C64 113.8 64.4 114.1 64.4 114.5L64.4 114.5C64.3 114.8 63.9 115.1 63.4 115.1Z" fill="#C00123"/></g><g><path d="M61 116.3 58.7 116.3C58.2 116.3 57.8 116.1 57.7 115.7L57.7 115.5C57.6 115.1 58.1 114.8 58.7 114.8L61.1 114.8C61.7 114.8 62.1 115.1 62.1 115.5L62.1 115.7C62 116.1 61.5 116.3 61 116.3Z" fill="#C00123"/></g><g><path d="M55.9 112.9 54 112.9C53.5 112.9 53.1 112.7 53 112.3L53 112.2C52.9 111.8 53.4 111.5 54 111.5L55.9 111.5C56.5 111.5 56.9 111.8 56.9 112.2L56.9 112.2C56.9 112.7 56.4 112.9 55.9 112.9Z" fill="#C00123"/></g></g><g><g><path d="M46.5 115.6 44.7 115.6C44.2 115.6 43.8 115.4 43.7 115L43.7 115C43.6 114.6 44.1 114.3 44.7 114.3L46.5 114.3C47.1 114.3 47.5 114.6 47.5 115L47.5 115C47.5 115.4 47.1 115.6 46.5 115.6Z" fill="#C00123"/></g><g><path d="M40.2 115.9 37.9 115.9C37.4 115.9 37 115.7 36.9 115.3L36.9 115.1C36.8 114.7 37.3 114.4 37.9 114.4L40.2 114.4C40.8 114.4 41.2 114.7 41.2 115.1L41.2 115.3C41.2 115.7 40.7 115.9 40.2 115.9Z" fill="#C00123"/></g></g></g><g><g><g><path d="M156.8 104.5 154.7 104.5C154.2 104.5 153.8 104.3 153.7 103.9L153.7 103.7C153.6 103.3 154.1 103 154.7 103L156.9 103C157.5 103 157.9 103.3 157.9 103.7L157.9 103.8C157.8 104.3 157.3 104.5 156.8 104.5Z" fill="#C00123"/></g><g><path d="M152.5 102.4 150.6 102.4C150.1 102.4 149.7 102.2 149.6 101.8L149.6 101.7C149.5 101.3 150 101 150.6 101L152.5 101C153.1 101 153.5 101.3 153.5 101.7L153.5 101.8C153.4 102.2 153 102.4 152.5 102.4Z" fill="#C00123"/></g><g><path d="M148.1 97.5 145.8 97.5C145.3 97.5 144.9 97.3 144.8 96.9L144.8 96.7C144.7 96.3 145.2 96 145.8 96L148.1 96C148.7 96 149.1 96.3 149.1 96.7L149.1 96.9C149.1 97.2 148.6 97.5 148.1 97.5Z" fill="#C00123"/></g><g><path d="M147.7 93.2 146 93.2C145.5 93.2 145.1 93 145 92.6L145 92.6C144.9 92.2 145.4 91.9 146 91.9L147.7 91.9C148.3 91.9 148.7 92.2 148.7 92.6L148.7 92.6C148.6 92.9 148.2 93.2 147.7 93.2Z" fill="#C00123"/></g></g><g><g><path d="M169.3 85.5 167 85.5C166.5 85.5 166.1 85.3 166 84.9L166 84.7C165.9 84.3 166.4 84 167 84L169.3 84C169.9 84 170.3 84.3 170.3 84.7L170.3 84.9C170.2 85.2 169.8 85.5 169.3 85.5Z" fill="#C00123"/></g><g><path d="M172.8 81.1 171 81.1C170.5 81.1 170.1 80.9 170 80.5L170 80.5C169.9 80.1 170.4 79.8 171 79.8L172.8 79.8C173.4 79.8 173.8 80.1 173.8 80.5L173.8 80.5C173.8 80.8 173.3 81.1 172.8 81.1Z" fill="#C00123"/></g><g><path d="M170.7 75.7 168.6 75.7C168.1 75.7 167.7 75.5 167.6 75.1L167.6 74.9C167.5 74.5 168 74.2 168.6 74.2L170.8 74.2C171.4 74.2 171.8 74.5 171.8 74.9L171.8 75C171.6 75.4 171.2 75.7 170.7 75.7Z" fill="#C00123"/></g><g><path d="M167.5 73.8 165.7 73.8C165.2 73.8 164.8 73.6 164.7 73.2L164.7 73.2C164.6 72.8 165.1 72.5 165.7 72.5L167.5 72.5C168.1 72.5 168.5 72.8 168.5 73.2L168.5 73.2C168.5 73.5 168 73.8 167.5 73.8Z" fill="#C00123"/></g><g><path d="M161.3 71.7 159.3 71.7C158.8 71.7 158.4 71.5 158.3 71.1L158.3 71C158.2 70.6 158.7 70.3 159.3 70.3L161.4 70.3C162 70.3 162.4 70.6 162.4 71L162.4 71.1C162.3 71.5 161.9 71.7 161.3 71.7Z" fill="#C00123"/></g></g><path d="M169.1 78.8 167.3 78.8C166.8 78.8 166.4 78.6 166.3 78.2L166.3 78.2C166.2 77.8 166.7 77.5 167.3 77.5L169.1 77.5C169.7 77.5 170.1 77.8 170.1 78.2L170.1 78.2C170 78.5 169.6 78.8 169.1 78.8Z" fill="#C00123"/><g><g><path d="M200.6 100.6 198.5 100.6C198 100.6 197.6 100.4 197.5 100L197.5 99.9C197.4 99.5 197.9 99.2 198.5 99.2L200.6 99.2C201.2 99.2 201.6 99.5 201.6 99.9L201.6 100C201.6 100.3 201.1 100.6 200.6 100.6Z" fill="#C00123"/></g><g><path d="M197.2 98.9 195 98.9C194.5 98.9 194.1 98.7 194 98.3L194 98.1C193.9 97.7 194.4 97.4 195 97.4L197.3 97.4C197.9 97.4 198.3 97.7 198.3 98.1L198.3 98.3C198.1 98.6 197.7 98.9 197.2 98.9Z" fill="#C00123"/></g><g><path d="M196.5 94.8 194.4 94.8C193.9 94.8 193.5 94.6 193.4 94.2L193.4 94.1C193.3 93.7 193.8 93.4 194.4 93.4L196.5 93.4C197.1 93.4 197.5 93.7 197.5 94.1L197.5 94.2C197.5 94.6 197 94.8 196.5 94.8Z" fill="#C00123"/></g><g><path d="M195.7 91.4 193.7 91.4C193.2 91.4 192.8 91.2 192.7 90.8L192.7 90.7C192.6 90.3 193.1 90 193.7 90L195.7 90C196.3 90 196.7 90.3 196.7 90.7L196.7 90.8C196.7 91.1 196.2 91.4 195.7 91.4Z" fill="#C00123"/></g><g><path d="M191.8 89.9 189.6 89.9C189.1 89.9 188.7 89.7 188.6 89.3L188.6 89.1C188.5 88.7 189 88.4 189.6 88.4L191.8 88.4C192.4 88.4 192.8 88.7 192.8 89.1L192.8 89.3C192.8 89.7 192.3 89.9 191.8 89.9Z" fill="#C00123"/></g><g><path d="M184.6 89.9 182.4 89.9C181.9 89.9 181.5 89.7 181.4 89.3L181.4 89.1C181.3 88.7 181.8 88.4 182.4 88.4L184.7 88.4C185.3 88.4 185.7 88.7 185.7 89.1L185.7 89.3C185.5 89.6 185.1 89.9 184.6 89.9Z" fill="#C00123"/></g></g><g><g><path d="M196.4 107 194.3 107C193.8 107 193.4 106.8 193.3 106.4L193.3 106.2C193.2 105.8 193.7 105.5 194.3 105.5L196.5 105.5C197.1 105.5 197.5 105.8 197.5 106.2L197.5 106.3C197.3 106.7 196.9 107 196.4 107Z" fill="#C00123"/></g><g><path d="M189.3 104.6 187.1 104.6C186.6 104.6 186.2 104.4 186.1 104L186.1 103.8C186 103.4 186.5 103.1 187.1 103.1L189.4 103.1C190 103.1 190.4 103.4 190.4 103.8L190.4 104C190.3 104.3 189.8 104.6 189.3 104.6Z" fill="#C00123"/></g></g><path d="M151.7 111.6 149.5 111.6C149 111.6 148.6 111.4 148.5 111L148.5 110.8C148.4 110.4 148.9 110.1 149.5 110.1L151.7 110.1C152.3 110.1 152.7 110.4 152.7 110.8L152.7 111C152.7 111.3 152.2 111.6 151.7 111.6Z" fill="#C00123"/><g><g><path d="M156.7 114.6 154.6 114.6C154.1 114.6 153.7 114.4 153.6 114L153.6 113.8C153.5 113.4 154 113.1 154.6 113.1L156.7 113.1C157.3 113.1 157.7 113.4 157.7 113.8L157.7 113.9C157.6 114.4 157.2 114.6 156.7 114.6Z" fill="#C00123"/></g><g><path d="M158.1 109.4 156.2 109.4C155.7 109.4 155.3 109.2 155.2 108.8L155.2 108.7C155.1 108.3 155.6 108 156.2 108L158.1 108C158.7 108 159.1 108.3 159.1 108.7L159.1 108.7C159.1 109.1 158.6 109.4 158.1 109.4Z" fill="#C00123"/></g></g><g><g><path d="M206.7 93 204.5 93C204 93 203.6 92.8 203.5 92.4L203.5 92.2C203.4 91.8 203.9 91.5 204.5 91.5L206.7 91.5C207.3 91.5 207.7 91.8 207.7 92.2L207.7 92.3C207.7 92.7 207.3 93 206.7 93Z" fill="#C00123"/></g><g><path d="M207.1 89.7 205.3 89.7C204.8 89.7 204.4 89.5 204.3 89.1L204.3 89C204.2 88.6 204.7 88.3 205.3 88.3L207.2 88.3C207.8 88.3 208.2 88.6 208.2 89L208.2 89C208 89.5 207.6 89.7 207.1 89.7Z" fill="#C00123"/></g><g><path d="M203.3 80.9 201.4 80.9C200.9 80.9 200.4 80.6 200.3 80.3L200.3 80.3C200.2 79.9 200.7 79.5 201.4 79.5L203.3 79.5C203.9 79.5 204.4 79.8 204.4 80.2L204.4 80.2C204.3 80.6 203.8 80.9 203.3 80.9Z" fill="#C00123"/></g></g><g><g><path d="M200.8 86.5 198.8 86.5C198.3 86.5 197.9 86.3 197.8 85.9L197.8 85.8C197.7 85.4 198.2 85.1 198.8 85.1L200.9 85.1C201.5 85.1 201.9 85.4 201.9 85.8L201.9 85.9C201.7 86.2 201.3 86.5 200.8 86.5Z" fill="#C00123"/></g><g><path d="M199.8 83.8 197.9 83.8C197.4 83.8 196.9 83.5 196.8 83.2L196.8 83.2C196.7 82.8 197.2 82.4 197.9 82.4L199.9 82.4C200.5 82.4 201 82.7 201 83.1L201 83.1C200.8 83.6 200.4 83.8 199.8 83.8Z" fill="#C00123"/></g><g><path d="M193.3 79.6 191.3 79.6C190.8 79.6 190.3 79.3 190.2 79L190.2 79C190.1 78.6 190.6 78.2 191.3 78.2L193.3 78.2C193.9 78.2 194.4 78.5 194.4 78.9L194.4 78.9C194.4 79.3 193.9 79.6 193.3 79.6Z" fill="#C00123"/></g></g><g><g><path d="M189.2 62.5 187.1 62.5C186.6 62.5 186.2 62.3 186.1 61.9L186.1 61.8C186 61.4 186.5 61.1 187.1 61.1L189.2 61.1C189.8 61.1 190.2 61.4 190.2 61.8L190.2 61.9C190.1 62.2 189.7 62.5 189.2 62.5Z" fill="#C00123"/></g><g><path d="M182.1 60.9 180.3 60.9C179.8 60.9 179.4 60.7 179.3 60.3L179.3 60.3C179.2 59.9 179.7 59.6 180.3 59.6L182.1 59.6C182.7 59.6 183.1 59.9 183.1 60.3L183.1 60.3C183 60.7 182.6 60.9 182.1 60.9Z" fill="#C00123"/></g><g><path d="M182.8 57.1 180.7 57.1C180.2 57.1 179.8 56.9 179.7 56.5L179.7 56.4C179.6 56 180.1 55.7 180.7 55.7L182.8 55.7C183.4 55.7 183.8 56 183.8 56.4L183.8 56.5C183.7 56.9 183.3 57.1 182.8 57.1Z" fill="#C00123"/></g><g><path d="M176.6 56.6 174.4 56.6C173.9 56.6 173.5 56.4 173.4 56L173.4 55.8C173.3 55.4 173.8 55.1 174.4 55.1L176.7 55.1C177.3 55.1 177.7 55.4 177.7 55.8L177.7 56C177.5 56.3 177.1 56.6 176.6 56.6Z" fill="#C00123"/></g></g><g><g><path d="M206.4 58 204.3 58C203.8 58 203.4 57.8 203.3 57.4L203.3 57.3C203.2 56.9 203.7 56.6 204.3 56.6L206.4 56.6C207 56.6 207.4 56.9 207.4 57.3L207.4 57.4C207.4 57.8 206.9 58 206.4 58Z" fill="#C00123"/></g><g><path d="M200.4 61.4 198.6 61.4C198.1 61.4 197.7 61.2 197.6 60.8L197.6 60.8C197.5 60.4 198 60.1 198.6 60.1L200.4 60.1C201 60.1 201.4 60.4 201.4 60.8L201.4 60.8C201.4 61.2 201 61.4 200.4 61.4Z" fill="#C00123"/></g><g><path d="M196.4 61.2 194.5 61.2C194 61.2 193.6 61 193.5 60.6L193.5 60.5C193.4 60.1 193.9 59.8 194.5 59.8L196.5 59.8C197.1 59.8 197.5 60.1 197.5 60.5L197.5 60.6C197.4 61 197 61.2 196.4 61.2Z" fill="#C00123"/></g><g><path d="M189.2 58.3 187.4 58.3C186.9 58.3 186.5 58.1 186.4 57.7L186.4 57.7C186.3 57.3 186.8 57 187.4 57L189.2 57C189.8 57 190.2 57.3 190.2 57.7L190.2 57.7C190.1 58 189.7 58.3 189.2 58.3Z" fill="#C00123"/></g></g><g><g><path d="M149 67.6 147.1 67.6C146.6 67.6 146.1 67.3 146.1 67L146.1 67C146 66.6 146.5 66.3 147.1 66.3L149 66.3C149.6 66.3 150.1 66.6 150 67L150 67C149.9 67.3 149.5 67.6 149 67.6Z" fill="#C00123"/></g><g><path d="M150.7 62.7 148.9 62.7C148.4 62.7 147.9 62.4 147.9 62.1L147.9 62.1C147.8 61.7 148.3 61.4 148.9 61.4L150.7 61.4C151.3 61.4 151.8 61.7 151.7 62.1L151.7 62.1C151.7 62.4 151.3 62.7 150.7 62.7Z" fill="#C00123"/></g><g><path d="M145.9 59.7 144 59.7C143.5 59.7 143 59.4 143 59.1L143 59C142.9 58.6 143.4 58.3 144 58.3L145.9 58.3C146.5 58.3 147 58.6 146.9 59L146.9 59C146.8 59.4 146.4 59.7 145.9 59.7Z" fill="#C00123"/></g></g><g><g><path d="M162.4 60.3 160.4 60.3C159.9 60.3 159.4 60 159.4 59.7L159.4 59.6C159.3 59.2 159.8 58.9 160.4 58.9L162.4 58.9C163 58.9 163.5 59.2 163.4 59.6L163.4 59.7C163.4 60 162.9 60.3 162.4 60.3Z" fill="#C00123"/></g><g><path d="M154.7 57.5 152.5 57.5C152 57.5 151.5 57.2 151.5 56.9L151.5 56.8C151.4 56.4 151.9 56.1 152.5 56.1L154.7 56.1C155.3 56.1 155.8 56.4 155.7 56.8L155.7 56.9C155.7 57.2 155.2 57.5 154.7 57.5Z" fill="#C00123"/></g></g><g><g><path d="M175.1 90.8 173.2 90.8C172.7 90.8 172.3 90.6 172.2 90.2L172.2 90.1C172.1 89.7 172.6 89.4 173.2 89.4L175.1 89.4C175.7 89.4 176.1 89.7 176.1 90.1L176.1 90.2C176 90.6 175.6 90.8 175.1 90.8Z" fill="#C00123"/></g><g><path d="M170.5 89.4 168.5 89.4C168 89.4 167.6 89.2 167.5 88.8L167.5 88.7C167.4 88.3 167.9 88 168.5 88L170.6 88C171.2 88 171.6 88.3 171.6 88.7L171.6 88.8C171.5 89.2 171.1 89.4 170.5 89.4Z" fill="#C00123"/></g><g><path d="M163.6 87.7 161.8 87.7C161.3 87.7 160.9 87.5 160.8 87.1L160.8 87.1C160.7 86.7 161.2 86.4 161.8 86.4L163.6 86.4C164.2 86.4 164.6 86.7 164.6 87.1L164.6 87.1C164.6 87.5 164.1 87.7 163.6 87.7Z" fill="#C00123"/></g><g><path d="M166.4 84.2 164.2 84.2C163.7 84.2 163.3 84 163.2 83.6L163.2 83.4C163.1 83 163.6 82.7 164.2 82.7L166.4 82.7C167 82.7 167.4 83 167.4 83.4L167.4 83.6C167.3 83.9 166.9 84.2 166.4 84.2Z" fill="#C00123"/></g><g><path d="M159.9 81.1 157.9 81.1C157.4 81.1 157 80.9 156.9 80.5L156.9 80.4C156.8 80 157.3 79.7 157.9 79.7L159.9 79.7C160.5 79.7 160.9 80 160.9 80.4L160.9 80.5C160.9 80.9 160.5 81.1 159.9 81.1Z" fill="#C00123"/></g></g><g><g><path d="M199.7 114.4 198 114.4C197.5 114.4 197.1 114.2 197 113.8L197 113.8C196.9 113.4 197.4 113.1 198 113.1L199.7 113.1C200.3 113.1 200.7 113.4 200.7 113.8L200.7 113.8C200.7 114.2 200.2 114.4 199.7 114.4Z" fill="#C00123"/></g><g><path d="M197.4 115.7 195.1 115.7C194.6 115.7 194.2 115.5 194.1 115.1L194.1 114.9C194 114.5 194.5 114.2 195.1 114.2L197.4 114.2C198 114.2 198.4 114.5 198.4 114.9L198.4 115.1C198.4 115.4 197.9 115.7 197.4 115.7Z" fill="#C00123"/></g><g><path d="M192.4 112.3 190.6 112.3C190.1 112.3 189.7 112.1 189.6 111.7L189.6 111.6C189.5 111.2 190 110.9 190.6 110.9L192.5 110.9C193.1 110.9 193.5 111.2 193.5 111.6L193.5 111.6C193.3 112 192.9 112.3 192.4 112.3Z" fill="#C00123"/></g></g><g><g><path d="M183.2 114.9 181.5 114.9C181 114.9 180.6 114.7 180.5 114.3L180.5 114.3C180.4 113.9 180.9 113.6 181.5 113.6L183.2 113.6C183.8 113.6 184.2 113.9 184.2 114.3L184.2 114.3C184.1 114.7 183.7 114.9 183.2 114.9Z" fill="#C00123"/></g><g><path d="M176.9 115.2 174.7 115.2C174.2 115.2 173.8 115 173.7 114.6L173.7 114.4C173.6 114 174.1 113.7 174.7 113.7L177 113.7C177.6 113.7 178 114 178 114.4L178 114.6C177.8 115 177.4 115.2 176.9 115.2Z" fill="#C00123"/></g></g></g><g><g><g><g><path d="M32.8 85.4 46.7 85.4C46.9 85.4 47 85.3 47 85.1L47.8 56.8C47.8 56.6 47.7 56.5 47.5 56.5L32.7 56.5C32.5 56.5 32.4 56.6 32.4 56.8L32.5 85.1C32.5 85.3 32.6 85.4 32.8 85.4Z" fill="#FCD0AE" fill-rule="evenodd" clip-rule="evenodd"/><path d="M33.9 83.9 33.2 58.1C33.2 57.9 33.3 57.8 33.5 57.8L46.2 57.8C46.4 57.8 46.5 57.9 46.5 58.1L45.7 83.9C45.7 84.1 45.6 84.2 45.4 84.2L34.2 84.2C34.1 84.2 33.9 84 33.9 83.9Z" fill="#ECB07D" fill-rule="evenodd" clip-rule="evenodd"/><path d="M34.9 83.8 34.4 59.7C34.4 59.5 34.5 59.4 34.7 59.4L46.1 59.4C46.3 59.4 46.4 59.5 46.4 59.7L45.7 83.8C45.7 84 45.6 84.1 45.4 84.1L35.2 84.1C35 84.2 34.9 84 34.9 83.8Z" fill="#E97E67" fill-rule="evenodd" clip-rule="evenodd"/><path d="M47.5 56.6 48.2 57.1C48.3 57.2 48.3 57.2 48.3 57.3L47.6 85.1C47.6 85.3 47.5 85.4 47.3 85.4L47.2 85.4C47 85.4 46.2 85.6 46.2 85.4L47.5 56.6Z" fill="#ECB07D" fill-rule="evenodd" clip-rule="evenodd"/><path d="M35.3 83.2 35 60.4C35 60.2 35.1 60.1 35.3 60.1L45.7 60.1C45.9 60.1 46 60.2 46 60.4L45.4 83.1C45.4 83.3 45.3 83.4 45.1 83.4L35.7 83.4C35.5 83.5 35.3 83.3 35.3 83.2Z" fill="#0A7F88" fill-rule="evenodd" clip-rule="evenodd"/><g><path d="M45.7 65.9 35 65.6 35 65.4 45.7 65.8Z" fill="#E97E67"/></g><g><path d="M38.8 83.5 38.2 60.1 38.3 60.1 38.9 83.5Z" fill="#E97E67"/></g><g><path d="M42.7 83.5 42.6 83.5 42.8 59.8 42.9 59.8Z" fill="#E97E67"/></g></g></g><g><g><g><path d="M12.1 85.4 26 85.4C26.2 85.4 26.3 85.3 26.3 85.1L27.1 56.8C27.1 56.6 27 56.5 26.8 56.5L12 56.5C11.8 56.5 11.7 56.6 11.7 56.8L11.8 85.1C11.8 85.3 11.9 85.4 12.1 85.4Z" fill="#FCD0AE" fill-rule="evenodd" clip-rule="evenodd"/><path d="M13.2 83.9 12.5 58.1C12.5 57.9 12.6 57.8 12.8 57.8L25.5 57.8C25.7 57.8 25.8 57.9 25.8 58.1L25 83.9C25 84.1 24.9 84.2 24.7 84.2L13.5 84.2C13.3 84.2 13.2 84 13.2 83.9Z" fill="#ECB07D" fill-rule="evenodd" clip-rule="evenodd"/><path d="M14.1 83.8 13.6 59.7C13.6 59.5 13.7 59.4 13.9 59.4L25.3 59.4C25.5 59.4 25.6 59.5 25.6 59.7L25 83.9C25 84.1 24.9 84.2 24.7 84.2L14.5 84.2C14.3 84.2 14.1 84 14.1 83.8Z" fill="#E97E67" fill-rule="evenodd" clip-rule="evenodd"/><path d="M26.8 56.6 27.5 57.1C27.6 57.2 27.6 57.2 27.6 57.3L26.9 85.1C26.9 85.3 26.8 85.4 26.6 85.4L26.5 85.4C26.3 85.4 25.5 85.6 25.5 85.4L26.8 56.6Z" fill="#ECB07D" fill-rule="evenodd" clip-rule="evenodd"/><path d="M14.6 83.2 14.2 60.5C14.2 60.3 14.3 60.2 14.5 60.2L25 60.2C25.2 60.2 25.3 60.3 25.3 60.5L24.7 83.2C24.7 83.4 24.6 83.5 24.4 83.5L15 83.5C14.8 83.5 14.6 83.3 14.6 83.2Z" fill="#0A7F88" fill-rule="evenodd" clip-rule="evenodd"/><g><path d="M25 65.9 14.3 65.6 14.3 65.4 25 65.8Z" fill="#E97E67"/></g><g><path d="M18.1 83.5 17.4 60.1 17.6 60.1 18.2 83.5Z" fill="#E97E67"/></g><g><path d="M22 83.5 21.9 83.5 22.1 59.8 22.2 59.8Z" fill="#E97E67"/></g></g></g><g><g><path d="M53.5 85.4 67.4 85.4C67.6 85.4 67.7 85.3 67.7 85.1L68.5 56.8C68.5 56.6 68.4 56.5 68.2 56.5L53.5 56.5C53.3 56.5 53.2 56.6 53.2 56.8L53.3 85.1C53.2 85.3 53.4 85.4 53.5 85.4Z" fill="#FCD0AE" fill-rule="evenodd" clip-rule="evenodd"/><path d="M54.6 83.9 54 58.1C54 57.9 54.1 57.8 54.3 57.8L67 57.8C67.2 57.8 67.3 57.9 67.3 58.1L66.5 83.9C66.5 84.1 66.4 84.2 66.2 84.2L55 84.2C54.8 84.2 54.6 84 54.6 83.9Z" fill="#ECB07D" fill-rule="evenodd" clip-rule="evenodd"/><path d="M55.6 83.8 55.1 59.7C55.1 59.5 55.2 59.4 55.4 59.4L66.8 59.4C67 59.4 67.1 59.5 67.1 59.7L66.4 83.8C66.4 84 66.3 84.1 66.1 84.1L55.9 84.1C55.7 84.2 55.6 84 55.6 83.8Z" fill="#E97E67" fill-rule="evenodd" clip-rule="evenodd"/><path d="M68.3 56.6 69 57.1C69.1 57.2 69.1 57.2 69.1 57.3L68.4 85.1C68.4 85.3 68.3 85.4 68.1 85.4L68 85.4C67.8 85.4 67 85.6 67 85.4L68.3 56.6Z" fill="#ECB07D" fill-rule="evenodd" clip-rule="evenodd"/><path d="M56.1 83.2 55.7 60.5C55.7 60.3 55.8 60.2 56 60.2L66.4 60.2C66.6 60.2 66.7 60.3 66.7 60.5L66.1 83.2C66.1 83.4 66 83.5 65.8 83.5L56.4 83.5C56.2 83.5 56.1 83.3 56.1 83.2Z" fill="#0A7F88" fill-rule="evenodd" clip-rule="evenodd"/><g><path d="M66.4 65.9 55.7 65.6 55.7 65.4 66.4 65.8Z" fill="#E97E67"/></g><g><path d="M59.5 83.5 58.9 60.1 59 60.1 59.6 83.5Z" fill="#E97E67"/></g><g><path d="M63.4 83.5 63.3 83.5 63.5 59.8 63.7 59.8Z" fill="#E97E67"/></g></g></g></g></g><g><g><g><path d="M32.4 111.2 46.3 111.2C46.5 111.2 46.6 111.1 46.6 111L47.4 89.4C47.4 89.3 47.3 89.2 47.1 89.2L32.4 89.2C32.2 89.2 32.1 89.3 32.1 89.4L32.2 111C32.1 111.1 32.3 111.2 32.4 111.2Z" fill="#FCD0AE" fill-rule="evenodd" clip-rule="evenodd"/><path d="M33.6 110 32.9 90.3C32.9 90.2 33 90.1 33.2 90.1L45.9 90.1C46.1 90.1 46.2 90.2 46.2 90.3L45.4 110C45.4 110.1 45.3 110.2 45.1 110.2L33.9 110.2C33.7 110.3 33.6 110.2 33.6 110Z" fill="#ECB07D" fill-rule="evenodd" clip-rule="evenodd"/><path d="M34.5 110 34 91.6C34 91.5 34.1 91.4 34.3 91.4L45.7 91.4C45.9 91.4 46 91.5 46 91.6L45.4 110C45.4 110.1 45.3 110.2 45.1 110.2L34.8 110.2C34.6 110.3 34.5 110.2 34.5 110Z" fill="#E97E67" fill-rule="evenodd" clip-rule="evenodd"/><path d="M47.2 89.2 47.9 89.6C48 89.6 48 89.7 48 89.8L47.2 111C47.2 111.1 47.1 111.2 46.9 111.2L46.8 111.2C46.6 111.2 45.8 111.3 45.8 111.2L47.2 89.2Z" fill="#ECB07D" fill-rule="evenodd" clip-rule="evenodd"/><path d="M35 109.5 34.6 92.1C34.6 92 34.7 91.9 34.9 91.9L45.3 91.9C45.5 91.9 45.6 92 45.6 92.1L45 109.5C45 109.6 44.9 109.7 44.7 109.7L35.3 109.7C35.1 109.8 35 109.6 35 109.5Z" fill="#0A7F88" fill-rule="evenodd" clip-rule="evenodd"/><g><path d="M45.4 96.3 34.6 96.1 34.6 96 45.4 96.2Z" fill="#E97E67"/></g><g><path d="M38.4 109.8 37.8 91.9 37.9 91.9 38.5 109.8Z" fill="#E97E67"/></g><g><path d="M42.4 109.8 42.2 109.8 42.5 91.6 42.6 91.6Z" fill="#E97E67"/></g></g></g><g><g><g><path d="M11.7 111.2 25.6 111.2C25.8 111.2 25.9 111.1 25.9 111L26.7 89.4C26.7 89.3 26.6 89.2 26.4 89.2L11.6 89.2C11.4 89.2 11.3 89.3 11.3 89.4L11.4 111C11.4 111.1 11.5 111.2 11.7 111.2Z" fill="#FCD0AE" fill-rule="evenodd" clip-rule="evenodd"/><path d="M12.8 110 12.1 90.3C12.1 90.2 12.2 90.1 12.4 90.1L25.1 90.1C25.3 90.1 25.4 90.2 25.4 90.3L24.7 110C24.7 110.1 24.6 110.2 24.4 110.2L13.2 110.2C13 110.3 12.8 110.2 12.8 110Z" fill="#ECB07D" fill-rule="evenodd" clip-rule="evenodd"/><path d="M13.8 110 13.3 91.6C13.3 91.5 13.4 91.4 13.6 91.4L25 91.4C25.2 91.4 25.3 91.5 25.3 91.6L24.7 110C24.7 110.1 24.6 110.2 24.4 110.2L14.1 110.2C13.9 110.3 13.8 110.2 13.8 110Z" fill="#E97E67" fill-rule="evenodd" clip-rule="evenodd"/><path d="M26.4 89.2 27.1 89.6C27.2 89.6 27.2 89.7 27.2 89.8L26.5 111C26.5 111.1 26.4 111.2 26.2 111.2L26.1 111.2C25.9 111.2 25.1 111.3 25.1 111.2L26.4 89.2Z" fill="#ECB07D" fill-rule="evenodd" clip-rule="evenodd"/><path d="M14.3 109.5 13.9 92.1C13.9 92 14 91.9 14.2 91.9L24.6 91.9C24.8 91.9 24.9 92 24.9 92.1L24.3 109.5C24.3 109.6 24.2 109.7 24 109.7L14.6 109.7C14.4 109.8 14.3 109.6 14.3 109.5Z" fill="#0A7F88" fill-rule="evenodd" clip-rule="evenodd"/><g><path d="M24.6 96.3 13.9 96.1 13.9 96 24.6 96.2Z" fill="#E97E67"/></g><g><path d="M17.7 109.8 17.1 91.9 17.2 91.9 17.8 109.8Z" fill="#E97E67"/></g><g><path d="M21.6 109.8 21.5 109.8 21.7 91.6 21.9 91.6Z" fill="#E97E67"/></g></g></g><g><g><path d="M53.2 111.2 67.1 111.2C67.3 111.2 67.4 111.1 67.4 111L68.2 89.4C68.2 89.3 68.1 89.2 67.9 89.2L53.1 89.2C52.9 89.2 52.8 89.3 52.8 89.4L52.9 111C52.8 111.1 53 111.2 53.2 111.2Z" fill="#FCD0AE" fill-rule="evenodd" clip-rule="evenodd"/><path d="M54.3 110 53.6 90.3C53.6 90.2 53.7 90.1 53.9 90.1L66.6 90.1C66.8 90.1 66.9 90.2 66.9 90.3L66.1 110C66.1 110.1 66 110.2 65.8 110.2L54.6 110.2C54.4 110.3 54.3 110.2 54.3 110Z" fill="#ECB07D" fill-rule="evenodd" clip-rule="evenodd"/><path d="M55.2 110 54.7 91.6C54.7 91.5 54.8 91.4 55 91.4L66.4 91.4C66.6 91.4 66.7 91.5 66.7 91.6L66.1 110C66.1 110.1 66 110.2 65.8 110.2L55.5 110.2C55.4 110.3 55.2 110.2 55.2 110Z" fill="#E97E67" fill-rule="evenodd" clip-rule="evenodd"/><path d="M67.9 89.2 68.6 89.6C68.7 89.6 68.7 89.7 68.7 89.8L68 111C68 111.1 67.9 111.2 67.7 111.2L67.6 111.2C67.4 111.2 66.6 111.3 66.6 111.2L67.9 89.2Z" fill="#ECB07D" fill-rule="evenodd" clip-rule="evenodd"/><path d="M55.7 109.5 55.3 92.1C55.3 92 55.4 91.9 55.6 91.9L66 91.9C66.2 91.9 66.3 92 66.3 92.1L65.7 109.5C65.7 109.6 65.6 109.7 65.4 109.7L56 109.7C55.8 109.8 55.7 109.6 55.7 109.5Z" fill="#0A7F88" fill-rule="evenodd" clip-rule="evenodd"/><g><path d="M66.1 96.3 55.4 96.1 55.4 96 66.1 96.2Z" fill="#E97E67"/></g><g><path d="M59.1 109.8 58.5 91.9 58.7 91.9 59.3 109.8Z" fill="#E97E67"/></g><g><path d="M63.1 109.8 63 109.8 63.2 91.6 63.3 91.6Z" fill="#E97E67"/></g></g></g></g></g></g><g><g><g><g><path d="M185.1 85.6 171.2 85.6C171 85.6 170.9 85.5 170.9 85.3L170.1 57C170.1 56.8 170.2 56.7 170.4 56.7L185.2 56.7C185.4 56.7 185.5 56.8 185.5 57L185.4 85.3C185.4 85.5 185.3 85.6 185.1 85.6Z" fill="#FCD0AE" fill-rule="evenodd" clip-rule="evenodd"/><path d="M184 84 184.7 58.2C184.7 58 184.6 57.9 184.4 57.9L171.7 57.9C171.5 57.9 171.4 58 171.4 58.2L172.2 84C172.2 84.2 172.3 84.3 172.5 84.3L183.7 84.3C183.9 84.3 184 84.2 184 84Z" fill="#ECB07D" fill-rule="evenodd" clip-rule="evenodd"/><path d="M183.1 84 183.6 59.9C183.6 59.7 183.5 59.6 183.3 59.6L171.9 59.6C171.7 59.6 171.6 59.7 171.6 59.9L172.3 84C172.3 84.2 172.4 84.3 172.6 84.3L182.9 84.3C182.9 84.3 183.1 84.2 183.1 84Z" fill="#E97E67" fill-rule="evenodd" clip-rule="evenodd"/><path d="M170.4 56.7 169.7 57.2C169.6 57.3 169.6 57.3 169.6 57.4L170.3 85.2C170.3 85.4 170.4 85.5 170.6 85.5L170.7 85.5C170.9 85.5 171.7 85.7 171.7 85.5L170.4 56.7Z" fill="#ECB07D" fill-rule="evenodd" clip-rule="evenodd"/><path d="M182.6 83.4 183 60.7C183 60.5 182.9 60.4 182.7 60.4L172.3 60.4C172.1 60.4 172 60.5 172 60.7L172.6 83.4C172.6 83.6 172.7 83.7 172.9 83.7L182.3 83.7C182.4 83.7 182.6 83.5 182.6 83.4Z" fill="#0A7F88" fill-rule="evenodd" clip-rule="evenodd"/><g><path d="M172.2 66.1 182.9 65.8 182.9 65.6 172.2 65.9Z" fill="#E97E67"/></g><g><path d="M179.2 83.7 179.8 60.3 179.6 60.3 179 83.7Z" fill="#E97E67"/></g><g><path d="M175.2 83.7 175.3 83.7 175.1 60 175 60Z" fill="#E97E67"/></g></g></g><g><g><g><path d="M205.8 85.6 192 85.6C191.8 85.6 191.7 85.5 191.7 85.3L190.8 57C190.8 56.8 190.9 56.7 191.1 56.7L205.9 56.7C206.1 56.7 206.2 56.8 206.2 57L206.1 85.3C206.2 85.5 206 85.6 205.8 85.6Z" fill="#FCD0AE" fill-rule="evenodd" clip-rule="evenodd"/><path d="M204.7 84 205.4 58.2C205.4 58 205.3 57.9 205.1 57.9L192.4 57.9C192.2 57.9 192.1 58 192.1 58.2L192.9 84C192.9 84.2 193 84.3 193.2 84.3L204.4 84.3C204.6 84.3 204.7 84.2 204.7 84Z" fill="#ECB07D" fill-rule="evenodd" clip-rule="evenodd"/><path d="M203.8 84 204.3 59.9C204.3 59.7 204.2 59.6 204 59.6L192.6 59.6C192.4 59.6 192.3 59.7 192.3 59.9L193 84C193 84.2 193.1 84.3 193.3 84.3L203.6 84.3C203.6 84.3 203.8 84.2 203.8 84Z" fill="#E97E67" fill-rule="evenodd" clip-rule="evenodd"/><path d="M191.1 56.7 190.4 57.2C190.3 57.3 190.3 57.3 190.3 57.4L191 85.2C191 85.4 191.1 85.5 191.3 85.5L191.4 85.5C191.6 85.5 192.4 85.7 192.4 85.5L191.1 56.7Z" fill="#ECB07D" fill-rule="evenodd" clip-rule="evenodd"/><path d="M203.3 83.4 203.7 60.7C203.7 60.5 203.6 60.4 203.4 60.4L193 60.4C192.8 60.4 192.7 60.5 192.7 60.7L193.3 83.4C193.3 83.6 193.4 83.7 193.6 83.7L203 83.7C203.2 83.7 203.3 83.5 203.3 83.4Z" fill="#0A7F88" fill-rule="evenodd" clip-rule="evenodd"/><g><path d="M192.9 66.1 203.6 65.8 203.6 65.6 192.9 65.9Z" fill="#E97E67"/></g><g><path d="M199.9 83.7 200.5 60.3 200.4 60.3 199.8 83.7Z" fill="#E97E67"/></g><g><path d="M195.9 83.7 196.1 83.7 195.8 60 195.7 60Z" fill="#E97E67"/></g></g></g><g><g><path d="M164.4 85.6 150.5 85.6C150.3 85.6 150.2 85.5 150.2 85.3L149.4 57C149.4 56.8 149.5 56.7 149.7 56.7L164.5 56.7C164.7 56.7 164.8 56.8 164.8 57L164.7 85.3C164.7 85.5 164.6 85.6 164.4 85.6Z" fill="#FCD0AE" fill-rule="evenodd" clip-rule="evenodd"/><path d="M163.3 84 164 58.2C164 58 163.9 57.9 163.7 57.9L151 57.9C150.8 57.9 150.7 58 150.7 58.2L151.5 84C151.5 84.2 151.6 84.3 151.8 84.3L163 84.3C163.1 84.3 163.3 84.2 163.3 84Z" fill="#ECB07D" fill-rule="evenodd" clip-rule="evenodd"/><path d="M162.3 84 162.8 59.9C162.8 59.7 162.7 59.6 162.5 59.6L151 59.6C150.8 59.6 150.7 59.7 150.7 59.9L151.4 84C151.4 84.2 151.5 84.3 151.7 84.3L162 84.3C162.2 84.3 162.3 84.2 162.3 84Z" fill="#E97E67" fill-rule="evenodd" clip-rule="evenodd"/><path d="M149.7 56.7 149 57.2C148.9 57.3 148.9 57.3 148.9 57.4L149.6 85.2C149.6 85.4 149.7 85.5 149.9 85.5L150 85.5C150.2 85.5 151 85.7 151 85.5L149.7 56.7Z" fill="#ECB07D" fill-rule="evenodd" clip-rule="evenodd"/><path d="M161.9 83.4 162.3 60.7C162.3 60.5 162.2 60.4 162 60.4L151.6 60.4C151.4 60.4 151.3 60.5 151.3 60.7L151.9 83.4C151.9 83.6 152 83.7 152.2 83.7L161.6 83.7C161.7 83.7 161.9 83.5 161.9 83.4Z" fill="#0A7F88" fill-rule="evenodd" clip-rule="evenodd"/><g><path d="M151.5 66.1 162.2 65.8 162.2 65.6 151.5 65.9Z" fill="#E97E67"/></g><g><path d="M158.4 83.7 159 60.3 158.9 60.3 158.3 83.7Z" fill="#E97E67"/></g><g><path d="M154.5 83.7 154.6 83.7 154.4 60 154.3 60Z" fill="#E97E67"/></g></g></g></g></g><g><g><g><path d="M185.5 111.4 171.6 111.4C171.4 111.4 171.3 111.3 171.3 111.2L170.5 89.6C170.5 89.5 170.6 89.4 170.8 89.4L185.6 89.4C185.8 89.4 185.9 89.5 185.9 89.6L185.8 111.2C185.8 111.3 185.7 111.4 185.5 111.4Z" fill="#FCD0AE" fill-rule="evenodd" clip-rule="evenodd"/><path d="M184.4 110.2 185.1 90.5C185.1 90.4 185 90.3 184.8 90.3L172.1 90.3C171.9 90.3 171.8 90.4 171.8 90.5L172.6 110.2C172.6 110.3 172.7 110.4 172.9 110.4L184.1 110.4C184.2 110.5 184.4 110.4 184.4 110.2Z" fill="#ECB07D" fill-rule="evenodd" clip-rule="evenodd"/><path d="M183.4 110.2 183.9 91.8C183.9 91.7 183.8 91.6 183.6 91.6L172.2 91.6C172 91.6 171.9 91.7 171.9 91.8L172.6 110.2C172.6 110.3 172.7 110.4 172.9 110.4L183.2 110.4C183.3 110.5 183.4 110.3 183.4 110.2Z" fill="#E97E67" fill-rule="evenodd" clip-rule="evenodd"/><path d="M170.8 89.4 170.1 89.8C170 89.8 170 89.9 170 90L170.7 111.2C170.7 111.3 170.8 111.4 171 111.4L171.1 111.4C171.3 111.4 172.1 111.5 172.1 111.4L170.8 89.4Z" fill="#ECB07D" fill-rule="evenodd" clip-rule="evenodd"/><path d="M183 109.7 183.4 92.3C183.4 92.2 183.3 92.1 183.1 92.1L172.7 92.1C172.5 92.1 172.4 92.2 172.4 92.3L173 109.7C173 109.8 173.1 109.9 173.3 109.9L182.7 109.9C182.8 109.9 183 109.8 183 109.7Z" fill="#0A7F88" fill-rule="evenodd" clip-rule="evenodd"/><g><path d="M172.6 96.5 183.3 96.2 183.3 96.1 172.6 96.4Z" fill="#E97E67"/></g><g><path d="M179.5 109.9 180.1 92.1 180 92.1 179.4 109.9Z" fill="#E97E67"/></g><g><path d="M175.6 109.9 175.7 109.9 175.5 91.8 175.3 91.8Z" fill="#E97E67"/></g></g></g><g><g><g><path d="M206.2 111.4 192.3 111.4C192.1 111.4 192 111.3 192 111.2L191.2 89.6C191.2 89.5 191.3 89.4 191.5 89.4L206.3 89.4C206.5 89.4 206.6 89.5 206.6 89.6L206.5 111.2C206.5 111.3 206.4 111.4 206.2 111.4Z" fill="#FCD0AE" fill-rule="evenodd" clip-rule="evenodd"/><path d="M205.1 110.2 205.8 90.5C205.8 90.4 205.7 90.3 205.5 90.3L192.8 90.3C192.6 90.3 192.5 90.4 192.5 90.5L193.3 110.2C193.3 110.3 193.4 110.4 193.6 110.4L204.8 110.4C204.9 110.5 205.1 110.4 205.1 110.2Z" fill="#ECB07D" fill-rule="evenodd" clip-rule="evenodd"/><path d="M204.2 110.2 204.7 91.8C204.7 91.7 204.6 91.6 204.4 91.6L193 91.6C192.8 91.6 192.7 91.7 192.7 91.8L193.4 110.2C193.4 110.3 193.5 110.4 193.7 110.4L204 110.4C204 110.5 204.2 110.3 204.2 110.2Z" fill="#E97E67" fill-rule="evenodd" clip-rule="evenodd"/><path d="M191.5 89.4 190.8 89.8C190.7 89.8 190.7 89.9 190.7 90L191.4 111.2C191.4 111.3 191.5 111.4 191.7 111.4L191.8 111.4C192 111.4 192.8 111.5 192.8 111.4L191.5 89.4Z" fill="#ECB07D" fill-rule="evenodd" clip-rule="evenodd"/><path d="M203.7 109.7 204.1 92.3C204.1 92.2 204 92.1 203.8 92.1L193.4 92.1C193.2 92.1 193.1 92.2 193.1 92.3L193.7 109.7C193.7 109.8 193.8 109.9 194 109.9L203.4 109.9C203.5 109.9 203.7 109.8 203.7 109.7Z" fill="#0A7F88" fill-rule="evenodd" clip-rule="evenodd"/><g><path d="M193.3 96.5 204 96.2 204 96.1 193.3 96.4Z" fill="#E97E67"/></g><g><path d="M200.2 109.9 200.8 92.1 200.7 92.1 200.1 109.9Z" fill="#E97E67"/></g><g><path d="M196.3 109.9 196.4 109.9 196.2 91.8 196.1 91.8Z" fill="#E97E67"/></g></g></g><g><g><path d="M164.8 111.4 150.9 111.4C150.7 111.4 150.6 111.3 150.6 111.2L149.8 89.6C149.8 89.5 149.9 89.4 150.1 89.4L164.9 89.4C165.1 89.4 165.2 89.5 165.2 89.6L165.1 111.2C165.1 111.3 164.9 111.4 164.8 111.4Z" fill="#FCD0AE" fill-rule="evenodd" clip-rule="evenodd"/><path d="M163.6 110.2 164.3 90.5C164.3 90.4 164.2 90.3 164 90.3L151.3 90.3C151.1 90.3 151 90.4 151 90.5L151.8 110.2C151.8 110.3 151.9 110.4 152.1 110.4L163.3 110.4C163.5 110.5 163.6 110.4 163.6 110.2Z" fill="#ECB07D" fill-rule="evenodd" clip-rule="evenodd"/><path d="M162.7 110.2 163.2 91.8C163.2 91.7 163.1 91.6 162.9 91.6L151.5 91.6C151.3 91.6 151.2 91.7 151.2 91.8L151.9 110.2C151.9 110.3 152 110.4 152.2 110.4L162.5 110.4C162.6 110.5 162.7 110.3 162.7 110.2Z" fill="#E97E67" fill-rule="evenodd" clip-rule="evenodd"/><path d="M150 89.4 149.3 89.8C149.2 89.8 149.2 89.9 149.2 90L149.9 111.2C149.9 111.3 150 111.4 150.2 111.4L150.3 111.4C150.5 111.4 151.3 111.5 151.3 111.4L150 89.4Z" fill="#ECB07D" fill-rule="evenodd" clip-rule="evenodd"/><path d="M162.2 109.7 162.6 92.3C162.6 92.2 162.5 92.1 162.3 92.1L151.9 92.1C151.7 92.1 151.6 92.2 151.6 92.3L152.2 109.7C152.2 109.8 152.3 109.9 152.5 109.9L161.9 109.9C162.1 109.9 162.2 109.8 162.2 109.7Z" fill="#0A7F88" fill-rule="evenodd" clip-rule="evenodd"/><g><path d="M151.9 96.5 162.6 96.2 162.6 96.1 151.9 96.4Z" fill="#E97E67"/></g><g><path d="M158.8 109.9 159.4 92.1 159.3 92.1 158.7 109.9Z" fill="#E97E67"/></g><g><path d="M154.8 109.9 155 109.9 154.7 91.8 154.6 91.8Z" fill="#E97E67"/></g></g></g></g></g></g><path d="M150.5 131.8 65.7 131.8 65.7 58.2C65.7 48.1 73.9 39.9 84 39.9L132.2 39.9C142.3 39.9 150.5 48.1 150.5 58.2L150.5 131.8Z" fill="#BB7083"/><g><g><g><linearGradient x1="9.9544" y1="72.3723" x2="14.2877" y2="163.372" gradientUnits="userSpaceOnUse" id="SVGID_4_"><stop offset="0" stop-color="#FFB754"/><stop offset="1" stop-color="#E84C1E"/></linearGradient><path d="M13.3 127.8 11.8 127.8C11.5 127.8 11.2 127.6 11.1 127.2L11.1 127C11.1 126.6 11.4 126.3 11.8 126.3L13.3 126.3C13.7 126.3 14 126.6 13.9 127L13.9 127.1C13.9 127.6 13.7 127.8 13.3 127.8Z" fill="url(#SVGID_4_)"/></g><g><linearGradient x1="13.0828" y1="72.2233" x2="17.4162" y2="163.223" gradientUnits="userSpaceOnUse" id="SVGID_5_"><stop offset="0" stop-color="#FFB754"/><stop offset="1" stop-color="#E84C1E"/></linearGradient><path d="M16.3 126.1 14.9 126.1C14.6 126.1 14.3 125.9 14.2 125.5L14.2 125.4C14.2 125 14.5 124.7 14.9 124.7L16.3 124.7C16.7 124.7 17 125 16.9 125.4L16.9 125.5C16.9 125.9 16.6 126.1 16.3 126.1Z" fill="url(#SVGID_5_)"/></g><g><linearGradient x1="13.8286" y1="72.1878" x2="18.162" y2="163.188" gradientUnits="userSpaceOnUse" id="SVGID_6_"><stop offset="0" stop-color="#FFB754"/><stop offset="1" stop-color="#E84C1E"/></linearGradient><path d="M17.3 130.6 15.9 130.6C15.6 130.6 15.3 130.4 15.2 130L15.2 129.9C15.2 129.5 15.5 129.2 15.9 129.2L17.3 129.2C17.7 129.2 18 129.5 17.9 129.9L17.9 130C17.9 130.4 17.6 130.6 17.3 130.6Z" fill="url(#SVGID_6_)"/></g><g><linearGradient x1="8.4208" y1="72.4453" x2="12.7541" y2="163.445" gradientUnits="userSpaceOnUse" id="SVGID_7_"><stop offset="0" stop-color="#FFB754"/><stop offset="1" stop-color="#E84C1E"/></linearGradient><path d="M11.7 126.5 10.3 126.5C10 126.5 9.7 126.3 9.6 125.9L9.6 125.8C9.6 125.4 9.9 125.1 10.3 125.1L11.7 125.1C12.1 125.1 12.4 125.4 12.3 125.8L12.3 125.9C12.3 126.2 12 126.5 11.7 126.5Z" fill="url(#SVGID_7_)"/></g><g><linearGradient x1="4.2461" y1="72.6441" x2="8.5794" y2="163.644" gradientUnits="userSpaceOnUse" id="SVGID_8_"><stop offset="0" stop-color="#FFB754"/><stop offset="1" stop-color="#E84C1E"/></linearGradient><path d="M7.4 126.7 6.2 126.7C5.9 126.7 5.6 126.5 5.5 126.1L5.5 126.1C5.5 125.7 5.8 125.4 6.2 125.4L7.5 125.4C7.9 125.4 8.2 125.7 8.1 126.1L8.1 126.1C8.1 126.4 7.8 126.7 7.4 126.7Z" fill="url(#SVGID_8_)"/></g></g><g><linearGradient x1="38.7501" y1="71.0011" x2="43.0834" y2="162.001" gradientUnits="userSpaceOnUse" id="SVGID_9_"><stop offset="0" stop-color="#FFB754"/><stop offset="1" stop-color="#E84C1E"/></linearGradient><path d="M42.1 126.9 40.7 126.9C40.4 126.9 40.1 126.7 40 126.3L40 126.2C40 125.8 40.3 125.5 40.7 125.5L42.1 125.5C42.5 125.5 42.8 125.8 42.7 126.2L42.7 126.3C42.7 126.6 42.4 126.9 42.1 126.9Z" fill="url(#SVGID_9_)"/></g><g><linearGradient x1="32.0346" y1="71.3209" x2="36.3679" y2="162.321" gradientUnits="userSpaceOnUse" id="SVGID_10_"><stop offset="0" stop-color="#FFB754"/><stop offset="1" stop-color="#E84C1E"/></linearGradient><path d="M35.3 126.4 34 126.4C33.7 126.4 33.4 126.2 33.3 125.8L33.3 125.7C33.3 125.3 33.6 125 34 125L35.3 125C35.7 125 36 125.3 35.9 125.7L35.9 125.7C35.9 126.2 35.6 126.4 35.3 126.4Z" fill="url(#SVGID_10_)"/></g><g><linearGradient x1="33.3582" y1="71.2578" x2="37.6915" y2="162.258" gradientUnits="userSpaceOnUse" id="SVGID_11_"><stop offset="0" stop-color="#FFB754"/><stop offset="1" stop-color="#E84C1E"/></linearGradient><path d="M36.7 127.8 35.3 127.8C35 127.8 34.7 127.6 34.6 127.2L34.6 127.1C34.6 126.7 34.9 126.4 35.3 126.4L36.7 126.4C37.1 126.4 37.4 126.7 37.3 127.1L37.3 127.2C37.4 127.6 37.1 127.8 36.7 127.8Z" fill="url(#SVGID_11_)"/></g><g><linearGradient x1="25.422" y1="71.6358" x2="29.7553" y2="162.636" gradientUnits="userSpaceOnUse" id="SVGID_12_"><stop offset="0" stop-color="#FFB754"/><stop offset="1" stop-color="#E84C1E"/></linearGradient><path d="M28.9 130.3 27.6 130.3C27.3 130.3 27 130.1 26.9 129.7L26.9 129.6C26.9 129.2 27.2 128.9 27.6 128.9L29 128.9C29.4 128.9 29.7 129.2 29.6 129.6L29.6 129.7C29.5 130 29.2 130.3 28.9 130.3Z" fill="url(#SVGID_12_)"/></g><g><linearGradient x1="54.6399" y1="70.2444" x2="58.9732" y2="161.244" gradientUnits="userSpaceOnUse" id="SVGID_13_"><stop offset="0" stop-color="#FFB754"/><stop offset="1" stop-color="#E84C1E"/></linearGradient><path d="M57.9 125.6 56.7 125.6C56.4 125.6 56.1 125.4 56 125L56 125C56 124.6 56.3 124.3 56.7 124.3L57.9 124.3C58.3 124.3 58.6 124.6 58.5 125L58.5 125C58.5 125.4 58.2 125.6 57.9 125.6Z" fill="url(#SVGID_13_)"/></g><g><linearGradient x1="50.9642" y1="70.4195" x2="55.2976" y2="161.419" gradientUnits="userSpaceOnUse" id="SVGID_14_"><stop offset="0" stop-color="#FFB754"/><stop offset="1" stop-color="#E84C1E"/></linearGradient><path d="M54.3 126.8 53 126.8C52.7 126.8 52.4 126.6 52.3 126.2L52.3 126.1C52.3 125.7 52.6 125.4 53 125.4L54.4 125.4C54.8 125.4 55.1 125.7 55 126.1L55 126.2C54.9 126.6 54.6 126.8 54.3 126.8Z" fill="url(#SVGID_14_)"/></g><g><linearGradient x1="56.2665" y1="70.167" x2="60.5999" y2="161.167" gradientUnits="userSpaceOnUse" id="SVGID_15_"><stop offset="0" stop-color="#FFB754"/><stop offset="1" stop-color="#E84C1E"/></linearGradient><path d="M59.7 129.6 58.4 129.6C58.1 129.6 57.8 129.4 57.7 129L57.7 128.9C57.7 128.5 58 128.2 58.4 128.2L59.8 128.2C60.2 128.2 60.5 128.5 60.4 128.9L60.4 129C60.4 129.3 60.1 129.6 59.7 129.6Z" fill="url(#SVGID_15_)"/></g><g><linearGradient x1="58.3109" y1="70.0696" x2="62.6442" y2="161.07" gradientUnits="userSpaceOnUse" id="SVGID_16_"><stop offset="0" stop-color="#FFB754"/><stop offset="1" stop-color="#E84C1E"/></linearGradient><path d="M61.7 128.5 60.4 128.5C60.1 128.5 59.8 128.3 59.7 127.9L59.7 127.8C59.7 127.4 60 127.1 60.4 127.1L61.8 127.1C62.2 127.1 62.5 127.4 62.4 127.8L62.4 127.9C62.4 128.3 62.1 128.5 61.7 128.5Z" fill="url(#SVGID_16_)"/></g><g><g><linearGradient x1="35.7596" y1="71.1435" x2="40.0929" y2="162.143" gradientUnits="userSpaceOnUse" id="SVGID_17_"><stop offset="0" stop-color="#FFB754"/><stop offset="1" stop-color="#E84C1E"/></linearGradient><path d="M39.2 130.3 37.8 130.3C37.5 130.3 37.2 130.1 37.1 129.7L37.1 129.6C37.1 129.2 37.4 128.9 37.8 128.9L39.2 128.9C39.6 128.9 39.9 129.2 39.8 129.6L39.8 129.7C39.9 130.1 39.6 130.3 39.2 130.3Z" fill="url(#SVGID_17_)"/></g><g><linearGradient x1="37.0594" y1="71.0816" x2="41.3927" y2="162.082" gradientUnits="userSpaceOnUse" id="SVGID_18_"><stop offset="0" stop-color="#FFB754"/><stop offset="1" stop-color="#E84C1E"/></linearGradient><path d="M40.3 124.2 38.9 124.2C38.6 124.2 38.3 124 38.2 123.6L38.2 123.5C38.2 123.1 38.5 122.8 38.9 122.8L40.4 122.8C40.8 122.8 41.1 123.1 41 123.5L41 123.6C40.9 123.9 40.6 124.2 40.3 124.2Z" fill="url(#SVGID_18_)"/></g></g></g><g><g><g><linearGradient x1="155.625" y1="65.4356" x2="159.959" y2="156.436" gradientUnits="userSpaceOnUse" id="SVGID_19_"><stop offset="0" stop-color="#FFB754"/><stop offset="1" stop-color="#E84C1E"/></linearGradient><path d="M159.3 127.6 157.8 127.6C157.5 127.6 157.2 127.4 157.1 127L157.1 126.8C157.1 126.4 157.4 126.1 157.8 126.1L159.3 126.1C159.7 126.1 160 126.4 159.9 126.8L159.9 126.9C159.9 127.3 159.7 127.6 159.3 127.6Z" fill="url(#SVGID_19_)"/></g><g><linearGradient x1="158.754" y1="65.2866" x2="163.087" y2="156.287" gradientUnits="userSpaceOnUse" id="SVGID_20_"><stop offset="0" stop-color="#FFB754"/><stop offset="1" stop-color="#E84C1E"/></linearGradient><path d="M162.3 125.9 160.9 125.9C160.6 125.9 160.3 125.7 160.2 125.3L160.2 125.2C160.2 124.8 160.5 124.5 160.9 124.5L162.3 124.5C162.7 124.5 163 124.8 162.9 125.2L162.9 125.3C162.9 125.7 162.6 125.9 162.3 125.9Z" fill="url(#SVGID_20_)"/></g><g><linearGradient x1="159.5" y1="65.2511" x2="163.833" y2="156.251" gradientUnits="userSpaceOnUse" id="SVGID_21_"><stop offset="0" stop-color="#FFB754"/><stop offset="1" stop-color="#E84C1E"/></linearGradient><path d="M163.3 130.4 161.9 130.4C161.6 130.4 161.3 130.2 161.2 129.8L161.2 129.7C161.2 129.3 161.5 129 161.9 129L163.3 129C163.7 129 164 129.3 163.9 129.7L163.9 129.8C163.9 130.2 163.6 130.4 163.3 130.4Z" fill="url(#SVGID_21_)"/></g><g><linearGradient x1="154.092" y1="65.5086" x2="158.425" y2="156.509" gradientUnits="userSpaceOnUse" id="SVGID_22_"><stop offset="0" stop-color="#FFB754"/><stop offset="1" stop-color="#E84C1E"/></linearGradient><path d="M157.7 126.3 156.3 126.3C156 126.3 155.7 126.1 155.6 125.7L155.6 125.6C155.6 125.2 155.9 124.9 156.3 124.9L157.7 124.9C158.1 124.9 158.4 125.2 158.3 125.6L158.3 125.7C158.3 126 158 126.3 157.7 126.3Z" fill="url(#SVGID_22_)"/></g><g><linearGradient x1="149.917" y1="65.7074" x2="154.25" y2="156.707" gradientUnits="userSpaceOnUse" id="SVGID_23_"><stop offset="0" stop-color="#FFB754"/><stop offset="1" stop-color="#E84C1E"/></linearGradient><path d="M153.4 126.5 152.1 126.5C151.8 126.5 151.5 126.3 151.4 125.9L151.4 125.9C151.4 125.5 151.7 125.2 152.1 125.2L153.4 125.2C153.8 125.2 154.1 125.5 154 125.9L154 125.9C154 126.2 153.8 126.5 153.4 126.5Z" fill="url(#SVGID_23_)"/></g></g><g><linearGradient x1="184.421" y1="64.0644" x2="188.755" y2="155.064" gradientUnits="userSpaceOnUse" id="SVGID_24_"><stop offset="0" stop-color="#FFB754"/><stop offset="1" stop-color="#E84C1E"/></linearGradient><path d="M188.1 126.7 186.7 126.7C186.4 126.7 186.1 126.5 186 126.1L186 126C186 125.6 186.3 125.3 186.7 125.3L188.1 125.3C188.5 125.3 188.8 125.6 188.7 126L188.7 126.1C188.7 126.4 188.4 126.7 188.1 126.7Z" fill="url(#SVGID_24_)"/></g><g><linearGradient x1="177.706" y1="64.3842" x2="182.039" y2="155.384" gradientUnits="userSpaceOnUse" id="SVGID_25_"><stop offset="0" stop-color="#FFB754"/><stop offset="1" stop-color="#E84C1E"/></linearGradient><path d="M181.3 126.2 180 126.2C179.7 126.2 179.4 126 179.3 125.6L179.3 125.5C179.3 125.1 179.6 124.8 180 124.8L181.3 124.8C181.7 124.8 182 125.1 181.9 125.5L181.9 125.5C181.9 126 181.6 126.2 181.3 126.2Z" fill="url(#SVGID_25_)"/></g><g><linearGradient x1="179.029" y1="64.3211" x2="183.363" y2="155.321" gradientUnits="userSpaceOnUse" id="SVGID_26_"><stop offset="0" stop-color="#FFB754"/><stop offset="1" stop-color="#E84C1E"/></linearGradient><path d="M182.7 127.6 181.3 127.6C181 127.6 180.7 127.4 180.6 127L180.6 126.9C180.6 126.5 180.9 126.2 181.3 126.2L182.7 126.2C183.1 126.2 183.4 126.5 183.3 126.9L183.3 127C183.4 127.3 183.1 127.6 182.7 127.6Z" fill="url(#SVGID_26_)"/></g><g><linearGradient x1="171.093" y1="64.699" x2="175.426" y2="155.699" gradientUnits="userSpaceOnUse" id="SVGID_27_"><stop offset="0" stop-color="#FFB754"/><stop offset="1" stop-color="#E84C1E"/></linearGradient><path d="M174.8 130 173.5 130C173.2 130 172.9 129.8 172.8 129.4L172.8 129.3C172.8 128.9 173.1 128.6 173.5 128.6L174.9 128.6C175.3 128.6 175.6 128.9 175.5 129.3L175.5 129.4C175.5 129.8 175.2 130 174.8 130Z" fill="url(#SVGID_27_)"/></g><g><linearGradient x1="200.311" y1="63.3077" x2="204.644" y2="154.308" gradientUnits="userSpaceOnUse" id="SVGID_28_"><stop offset="0" stop-color="#FFB754"/><stop offset="1" stop-color="#E84C1E"/></linearGradient><path d="M203.9 125.4 202.7 125.4C202.4 125.4 202.1 125.2 202 124.8L202 124.8C202 124.4 202.3 124.1 202.7 124.1L203.9 124.1C204.3 124.1 204.6 124.4 204.5 124.8L204.5 124.8C204.5 125.1 204.2 125.4 203.9 125.4Z" fill="url(#SVGID_28_)"/></g><g><linearGradient x1="196.635" y1="63.4827" x2="200.969" y2="154.483" gradientUnits="userSpaceOnUse" id="SVGID_29_"><stop offset="0" stop-color="#FFB754"/><stop offset="1" stop-color="#E84C1E"/></linearGradient><path d="M200.3 126.6 199 126.6C198.7 126.6 198.4 126.4 198.3 126L198.3 125.9C198.3 125.5 198.6 125.2 199 125.2L200.4 125.2C200.8 125.2 201.1 125.5 201 125.9L201 126C200.9 126.4 200.6 126.6 200.3 126.6Z" fill="url(#SVGID_29_)"/></g><g><linearGradient x1="201.938" y1="63.2303" x2="206.271" y2="154.23" gradientUnits="userSpaceOnUse" id="SVGID_30_"><stop offset="0" stop-color="#FFB754"/><stop offset="1" stop-color="#E84C1E"/></linearGradient><path d="M205.7 129.3 204.4 129.3C204.1 129.3 203.8 129.1 203.7 128.7L203.7 128.6C203.7 128.2 204 127.9 204.4 127.9L205.8 127.9C206.2 127.9 206.5 128.2 206.4 128.6L206.4 128.7C206.4 129.1 206.1 129.3 205.7 129.3Z" fill="url(#SVGID_30_)"/></g><g><linearGradient x1="203.982" y1="63.1329" x2="208.315" y2="154.133" gradientUnits="userSpaceOnUse" id="SVGID_31_"><stop offset="0" stop-color="#FFB754"/><stop offset="1" stop-color="#E84C1E"/></linearGradient><path d="M207.7 128.3 206.4 128.3C206.1 128.3 205.8 128.1 205.7 127.7L205.7 127.6C205.7 127.2 206 126.9 206.4 126.9L207.8 126.9C208.2 126.9 208.5 127.2 208.4 127.6L208.4 127.7C208.4 128 208.1 128.3 207.7 128.3Z" fill="url(#SVGID_31_)"/></g><g><g><linearGradient x1="181.431" y1="64.2068" x2="185.764" y2="155.207" gradientUnits="userSpaceOnUse" id="SVGID_32_"><stop offset="0" stop-color="#FFB754"/><stop offset="1" stop-color="#E84C1E"/></linearGradient><path d="M185.2 130.1 183.8 130.1C183.5 130.1 183.2 129.9 183.1 129.5L183.1 129.4C183.1 129 183.4 128.7 183.8 128.7L185.2 128.7C185.6 128.7 185.9 129 185.8 129.4L185.8 129.5C185.8 129.8 185.6 130.1 185.2 130.1Z" fill="url(#SVGID_32_)"/></g><g><linearGradient x1="182.731" y1="64.1449" x2="187.064" y2="155.145" gradientUnits="userSpaceOnUse" id="SVGID_33_"><stop offset="0" stop-color="#FFB754"/><stop offset="1" stop-color="#E84C1E"/></linearGradient><path d="M186.3 124 184.9 124C184.6 124 184.3 123.8 184.2 123.4L184.2 123.3C184.2 122.9 184.5 122.6 184.9 122.6L186.4 122.6C186.8 122.6 187.1 122.9 187 123.3L187 123.4C186.9 123.7 186.6 124 186.3 124Z" fill="url(#SVGID_33_)"/></g></g></g><g><linearGradient x1="69.1822" y1="79.817" x2="147.803" y2="79.817" gradientUnits="userSpaceOnUse" id="SVGID_34_"><stop offset="0" stop-color="#C80610"/><stop offset="0.0682853" stop-color="#D41116"/><stop offset="0.2166" stop-color="#E7231F"/><stop offset="0.3887" stop-color="#F53026"/><stop offset="0.6041" stop-color="#FD382A"/><stop offset="1" stop-color="#FF3A2B"/></linearGradient><rect x="69.2" y="46.9" width="78.6" height="65.8" fill="url(#SVGID_34_)"/><path d="M69.8 48.7 69.2 46.9 69.2 48.7Z" fill="#A06150"/><path d="M147.8 48.7 147.8 46.9 69.2 46.9 69.8 48.7Z" fill="#FFECBE"/></g><g><linearGradient x1="67.3373" y1="126.203" x2="148.494" y2="126.203" gradientUnits="userSpaceOnUse" id="SVGID_35_"><stop offset="0" stop-color="#C80610"/><stop offset="0.0682853" stop-color="#D41116"/><stop offset="0.2166" stop-color="#E7231F"/><stop offset="0.3887" stop-color="#F53026"/><stop offset="0.6041" stop-color="#FD382A"/><stop offset="1" stop-color="#FF3A2B"/></linearGradient><rect x="67.3" y="116.3" width="81.2" height="19.9" fill="url(#SVGID_35_)"/><rect x="67.3" y="116.3" width="81.2" height="1.8" fill="#764231"/><path d="M148 112.7 67.8 112.7C66.8 112.7 66 113.5 66 114.5L66 114.5C66 115.5 66.8 116.3 67.8 116.3L148 116.3C149 116.3 149.8 115.5 149.8 114.5L149.8 114.5C149.8 113.5 149 112.7 148 112.7Z" fill="#FFECBE"/><path d="M148.2 132.6 67.7 132.6C66.8 132.6 66.1 133.3 66.1 134.2L66.1 134.6C66.1 135.5 66.8 136.2 67.7 136.2L148.2 136.2C149.1 136.2 149.8 135.5 149.8 134.6L149.8 134.2C149.8 133.3 149.1 132.6 148.2 132.6Z" fill="#CB8C8B"/></g><path d="M155.8 35.5 60.1 35.5C58.9 35.5 57.9 36.5 57.9 37.7L57.9 37.7C57.9 38.9 58.9 39.9 60.1 39.9L155.8 39.9C157 39.9 158 38.9 158 37.7L158 37.7C158 36.5 157 35.5 155.8 35.5Z" fill="#C00123"/><path d="M148 39.8 67.8 39.8C66.8 39.8 66 40.6 66 41.6L66 41.6C66 42.6 66.8 43.4 67.8 43.4L148 43.4C149 43.4 149.8 42.6 149.8 41.6L149.8 41.6C149.8 40.6 149 39.8 148 39.8Z" fill="#ECB07D"/><path d="M146.7 43.4 69.1 43.4C68.1 43.4 67.3 44.2 67.3 45.2L67.3 45.2C67.3 46.2 68.1 47 69.1 47L146.7 47C147.7 47 148.5 46.2 148.5 45.2L148.5 45.2C148.5 44.2 147.7 43.4 146.7 43.4Z" fill="#764231"/><g><rect x="85.7" y="43.4" width="44.4" height="3.6" fill="#764231"/><rect x="85.7" y="43.4" width="44.4" height="1.8" fill="#572D1F"/><path d="M126.7 38.1 89.2 38.1C86.3 38.1 83.9 40.5 83.9 43.4L83.9 43.4 132 43.4 132 43.4C132 40.4 129.6 38.1 126.7 38.1Z" fill="#FFECBE"/></g><g><g><path d="M71.8 120.6 68.5 120.6C68.2 120.6 67.9 120.8 67.9 121.1L67.9 121.6C67.9 121.9 68.2 122.1 68.5 122.1L71.8 122.1C72.1 122.1 72.4 121.9 72.4 121.6L72.4 121.1C72.3 120.8 72.1 120.6 71.8 120.6Z" fill="#C00123"/><path d="M71.4 120.2 74.7 120.2C75 120.2 75.3 120 75.3 119.7L75.3 119.2C75.3 118.9 75 118.7 74.7 118.7L71.4 118.7C71.1 118.7 70.8 118.9 70.8 119.2L70.8 119.7C70.8 120 71.1 120.2 71.4 120.2Z" fill="#C00123"/><path d="M68.5 120.2 69.2 120.2C69.5 120.2 69.8 120 69.8 119.7L69.8 119.2C69.8 118.9 69.5 118.7 69.2 118.7L68.5 118.7C68.2 118.7 67.9 118.9 67.9 119.2L67.9 119.7C68 120 68.2 120.2 68.5 120.2Z" fill="#C00123"/><path d="M76.8 120.2 76.9 120.2 77.3 120.2 77.4 120.2C77.7 120.2 78 120 78 119.7L78 119.2C78 118.9 77.7 118.7 77.4 118.7L77.3 118.7 76.9 118.7 76.8 118.7C76.5 118.7 76.2 118.9 76.2 119.2L76.2 119.7C76.2 120 76.5 120.2 76.8 120.2Z" fill="#C00123"/><path d="M79.7 120.2 83 120.2C83.3 120.2 83.6 120 83.6 119.7L83.6 119.2C83.6 118.9 83.3 118.7 83 118.7L79.7 118.7C79.4 118.7 79.1 118.9 79.1 119.2L79.1 119.7C79.1 120 79.4 120.2 79.7 120.2Z" fill="#C00123"/><path d="M85.6 118.7 85.2 118.7C84.9 118.7 84.6 118.9 84.6 119.2L84.6 119.7C84.6 120 84.9 120.2 85.2 120.2L85.6 120.2C85.9 120.2 86.2 120 86.2 119.7L86.2 119.2C86.2 118.9 86 118.7 85.6 118.7Z" fill="#C00123"/><path d="M85.6 120.6 82.3 120.6C82 120.6 81.7 120.8 81.7 121.1L81.7 121.6C81.7 121.9 82 122.1 82.3 122.1L85.6 122.1C85.9 122.1 86.2 121.9 86.2 121.6L86.2 121.1C86.2 120.8 85.9 120.6 85.6 120.6Z" fill="#C00123"/><path d="M80.1 120.6 77.3 120.6 76.7 120.6 74 120.6C73.7 120.6 73.4 120.8 73.4 121.1L73.4 121.6C73.4 121.9 73.7 122.1 74 122.1L76.8 122.1 77.4 122.1 80.2 122.1C80.5 122.1 80.8 121.9 80.8 121.6L80.8 121.1C80.6 120.8 80.4 120.6 80.1 120.6Z" fill="#C00123"/></g><g><path d="M71.6 125.1 68.3 125.1C68 125.1 67.7 125.3 67.7 125.6L67.7 126.1C67.7 126.4 68 126.6 68.3 126.6L71.6 126.6C71.9 126.6 72.2 126.4 72.2 126.1L72.2 125.6C72.2 125.3 72 125.1 71.6 125.1Z" fill="#C00123"/><path d="M71.2 124.7 74.5 124.7C74.8 124.7 75.1 124.5 75.1 124.2L75.1 123.7C75.1 123.4 74.8 123.2 74.5 123.2L71.2 123.2C70.9 123.2 70.6 123.4 70.6 123.7L70.6 124.2C70.7 124.4 70.9 124.7 71.2 124.7Z" fill="#C00123"/><path d="M68.4 124.7 69 124.7C69.3 124.7 69.6 124.5 69.6 124.2L69.6 123.7C69.6 123.4 69.3 123.2 69 123.2L68.3 123.2C68 123.2 67.7 123.4 67.7 123.7L67.7 124.2C67.8 124.4 68.1 124.7 68.4 124.7Z" fill="#C00123"/><path d="M76.7 124.7 76.8 124.7 77.2 124.7 77.3 124.7C77.6 124.7 77.9 124.5 77.9 124.2L77.9 123.7C77.9 123.4 77.6 123.2 77.3 123.2L77.2 123.2 76.8 123.2 76.7 123.2C76.4 123.2 76.1 123.4 76.1 123.7L76.1 124.2C76.1 124.4 76.4 124.7 76.7 124.7Z" fill="#C00123"/><path d="M79.5 124.7 82.8 124.7C83.1 124.7 83.4 124.5 83.4 124.2L83.4 123.7C83.4 123.4 83.1 123.2 82.8 123.2L79.5 123.2C79.2 123.2 78.9 123.4 78.9 123.7L78.9 124.2C79 124.4 79.2 124.7 79.5 124.7Z" fill="#C00123"/><path d="M85.5 123.2 85.1 123.2C84.8 123.2 84.5 123.4 84.5 123.7L84.5 124.2C84.5 124.5 84.8 124.7 85.1 124.7L85.5 124.7C85.8 124.7 86.1 124.5 86.1 124.2L86.1 123.7C86.1 123.4 85.8 123.2 85.5 123.2Z" fill="#C00123"/><path d="M85.5 125.1 82.2 125.1C81.9 125.1 81.6 125.3 81.6 125.6L81.6 126.1C81.6 126.4 81.9 126.6 82.2 126.6L85.5 126.6C85.8 126.6 86.1 126.4 86.1 126.1L86.1 125.6C86 125.3 85.8 125.1 85.5 125.1Z" fill="#C00123"/><path d="M79.9 125.1 77.1 125.1 76.5 125.1 73.7 125.1C73.4 125.1 73.1 125.3 73.1 125.6L73.1 126.1C73.1 126.4 73.4 126.6 73.7 126.6L76.5 126.6 77.1 126.6 79.9 126.6C80.2 126.6 80.5 126.4 80.5 126.1L80.5 125.6C80.5 125.3 80.2 125.1 79.9 125.1Z" fill="#C00123"/></g><g><path d="M71.6 129.5 68.3 129.5C68 129.5 67.7 129.7 67.7 130L67.7 130.5C67.7 130.8 68 131 68.3 131L71.6 131C71.9 131 72.2 130.8 72.2 130.5L72.2 130C72.2 129.8 72 129.5 71.6 129.5Z" fill="#C00123"/><path d="M71.2 129.1 74.5 129.1C74.8 129.1 75.1 128.9 75.1 128.6L75.1 128.1C75.1 127.8 74.8 127.6 74.5 127.6L71.2 127.6C70.9 127.6 70.6 127.8 70.6 128.1L70.6 128.6C70.7 128.9 70.9 129.1 71.2 129.1Z" fill="#C00123"/><path d="M68.4 129.1 69 129.1C69.3 129.1 69.6 128.9 69.6 128.6L69.6 128.1C69.6 127.8 69.3 127.6 69 127.6L68.3 127.6C68 127.6 67.7 127.8 67.7 128.1L67.7 128.6C67.8 128.9 68.1 129.1 68.4 129.1Z" fill="#C00123"/><path d="M76.7 129.1 76.8 129.1 77.2 129.1 77.3 129.1C77.6 129.1 77.9 128.9 77.9 128.6L77.9 128.1C77.9 127.8 77.6 127.6 77.3 127.6L77.2 127.6 76.8 127.6 76.7 127.6C76.4 127.6 76.1 127.8 76.1 128.1L76.1 128.6C76.1 128.9 76.4 129.1 76.7 129.1Z" fill="#C00123"/><path d="M79.5 129.1 82.8 129.1C83.1 129.1 83.4 128.9 83.4 128.6L83.4 128.1C83.4 127.8 83.1 127.6 82.8 127.6L79.5 127.6C79.2 127.6 78.9 127.8 78.9 128.1L78.9 128.6C79 128.9 79.2 129.1 79.5 129.1Z" fill="#C00123"/><path d="M85.5 127.6 85.1 127.6C84.8 127.6 84.5 127.8 84.5 128.1L84.5 128.6C84.5 128.9 84.8 129.1 85.1 129.1L85.5 129.1C85.8 129.1 86.1 128.9 86.1 128.6L86.1 128.1C86.1 127.8 85.8 127.6 85.5 127.6Z" fill="#C00123"/><path d="M85.5 129.5 82.2 129.5C81.9 129.5 81.6 129.7 81.6 130L81.6 130.5C81.6 130.8 81.9 131 82.2 131L85.5 131C85.8 131 86.1 130.8 86.1 130.5L86.1 130C86 129.8 85.8 129.5 85.5 129.5Z" fill="#C00123"/><path d="M79.9 129.5 77.1 129.5 76.5 129.5 73.7 129.5C73.4 129.5 73.1 129.7 73.1 130L73.1 130.5C73.1 130.8 73.4 131 73.7 131L76.5 131 77.1 131 79.9 131C80.2 131 80.5 130.8 80.5 130.5L80.5 130C80.5 129.8 80.2 129.5 79.9 129.5Z" fill="#C00123"/></g></g><g><g><path d="M133 120.6 129.7 120.6C129.4 120.6 129.1 120.8 129.1 121.1L129.1 121.6C129.1 121.9 129.4 122.1 129.7 122.1L133 122.1C133.3 122.1 133.6 121.9 133.6 121.6L133.6 121.1C133.6 120.8 133.4 120.6 133 120.6Z" fill="#C00123"/><path d="M132.6 120.2 135.9 120.2C136.2 120.2 136.5 120 136.5 119.7L136.5 119.2C136.5 118.9 136.2 118.7 135.9 118.7L132.6 118.7C132.3 118.7 132 118.9 132 119.2L132 119.7C132.1 120 132.3 120.2 132.6 120.2Z" fill="#C00123"/><path d="M129.8 120.2 130.5 120.2C130.8 120.2 131.1 120 131.1 119.7L131.1 119.2C131.1 118.9 130.8 118.7 130.5 118.7L129.8 118.7C129.5 118.7 129.2 118.9 129.2 119.2L129.2 119.7C129.2 120 129.5 120.2 129.8 120.2Z" fill="#C00123"/><path d="M138.1 120.2 138.2 120.2 138.6 120.2 138.7 120.2C139 120.2 139.3 120 139.3 119.7L139.3 119.2C139.3 118.9 139 118.7 138.7 118.7L138.6 118.7 138.2 118.7 138.1 118.7C137.8 118.7 137.5 118.9 137.5 119.2L137.5 119.7C137.5 120 137.8 120.2 138.1 120.2Z" fill="#C00123"/><path d="M140.9 120.2 144.2 120.2C144.5 120.2 144.8 120 144.8 119.7L144.8 119.2C144.8 118.9 144.5 118.7 144.2 118.7L140.9 118.7C140.6 118.7 140.3 118.9 140.3 119.2L140.3 119.7C140.4 120 140.6 120.2 140.9 120.2Z" fill="#C00123"/><path d="M146.9 118.7 146.5 118.7C146.2 118.7 145.9 118.9 145.9 119.2L145.9 119.7C145.9 120 146.2 120.2 146.5 120.2L146.9 120.2C147.2 120.2 147.5 120 147.5 119.7L147.5 119.2C147.5 118.9 147.2 118.7 146.9 118.7Z" fill="#C00123"/><path d="M146.9 120.6 143.6 120.6C143.3 120.6 143 120.8 143 121.1L143 121.6C143 121.9 143.3 122.1 143.6 122.1L146.9 122.1C147.2 122.1 147.5 121.9 147.5 121.6L147.5 121.1C147.4 120.8 147.2 120.6 146.9 120.6Z" fill="#C00123"/><path d="M141.3 120.6 138.5 120.6 138 120.6 135.2 120.6C134.9 120.6 134.6 120.8 134.6 121.1L134.6 121.6C134.6 121.9 134.9 122.1 135.2 122.1L138 122.1 138.6 122.1 141.4 122.1C141.7 122.1 142 121.9 142 121.6L142 121.1C141.9 120.8 141.6 120.6 141.3 120.6Z" fill="#C00123"/></g><g><path d="M132.9 125.1 129.6 125.1C129.3 125.1 129 125.3 129 125.6L129 126.1C129 126.4 129.3 126.6 129.6 126.6L132.9 126.6C133.2 126.6 133.5 126.4 133.5 126.1L133.5 125.6C133.5 125.3 133.2 125.1 132.9 125.1Z" fill="#C00123"/><path d="M132.5 124.7 135.8 124.7C136.1 124.7 136.4 124.5 136.4 124.2L136.4 123.7C136.4 123.4 136.1 123.2 135.8 123.2L132.5 123.2C132.2 123.2 131.9 123.4 131.9 123.7L131.9 124.2C131.9 124.4 132.2 124.7 132.5 124.7Z" fill="#C00123"/><path d="M129.6 124.7 130.3 124.7C130.6 124.7 130.9 124.5 130.9 124.2L130.9 123.7C130.9 123.4 130.6 123.2 130.3 123.2L129.6 123.2C129.3 123.2 129 123.4 129 123.7L129 124.2C129.1 124.4 129.3 124.7 129.6 124.7Z" fill="#C00123"/><path d="M137.9 124.7 138 124.7 138.4 124.7 138.5 124.7C138.8 124.7 139.1 124.5 139.1 124.2L139.1 123.7C139.1 123.4 138.8 123.2 138.5 123.2L138.4 123.2 138 123.2 137.9 123.2C137.6 123.2 137.3 123.4 137.3 123.7L137.3 124.2C137.4 124.4 137.6 124.7 137.9 124.7Z" fill="#C00123"/><path d="M140.8 124.7 144.1 124.7C144.4 124.7 144.7 124.5 144.7 124.2L144.7 123.7C144.7 123.4 144.4 123.2 144.1 123.2L140.8 123.2C140.5 123.2 140.2 123.4 140.2 123.7L140.2 124.2C140.2 124.4 140.5 124.7 140.8 124.7Z" fill="#C00123"/><path d="M146.8 123.2 146.4 123.2C146.1 123.2 145.8 123.4 145.8 123.7L145.8 124.2C145.8 124.5 146.1 124.7 146.4 124.7L146.8 124.7C147.1 124.7 147.4 124.5 147.4 124.2L147.4 123.7C147.3 123.4 147.1 123.2 146.8 123.2Z" fill="#C00123"/><path d="M146.7 125.1 143.4 125.1C143.1 125.1 142.8 125.3 142.8 125.6L142.8 126.1C142.8 126.4 143.1 126.6 143.4 126.6L146.7 126.6C147 126.6 147.3 126.4 147.3 126.1L147.3 125.6C147.3 125.3 147 125.1 146.7 125.1Z" fill="#C00123"/><path d="M141.2 125.1 138.4 125.1 137.8 125.1 135 125.1C134.7 125.1 134.4 125.3 134.4 125.6L134.4 126.1C134.4 126.4 134.7 126.6 135 126.6L137.8 126.6 138.4 126.6 141.2 126.6C141.5 126.6 141.8 126.4 141.8 126.1L141.8 125.6C141.8 125.3 141.5 125.1 141.2 125.1Z" fill="#C00123"/></g><g><path d="M132.9 129.5 129.6 129.5C129.3 129.5 129 129.7 129 130L129 130.5C129 130.8 129.3 131 129.6 131L132.9 131C133.2 131 133.5 130.8 133.5 130.5L133.5 130C133.5 129.8 133.2 129.5 132.9 129.5Z" fill="#C00123"/><path d="M132.5 129.1 135.8 129.1C136.1 129.1 136.4 128.9 136.4 128.6L136.4 128.1C136.4 127.8 136.1 127.6 135.8 127.6L132.5 127.6C132.2 127.6 131.9 127.8 131.9 128.1L131.9 128.6C131.9 128.9 132.2 129.1 132.5 129.1Z" fill="#C00123"/><path d="M129.6 129.1 130.3 129.1C130.6 129.1 130.9 128.9 130.9 128.6L130.9 128.1C130.9 127.8 130.6 127.6 130.3 127.6L129.6 127.6C129.3 127.6 129 127.8 129 128.1L129 128.6C129.1 128.9 129.3 129.1 129.6 129.1Z" fill="#C00123"/><path d="M137.9 129.1 138 129.1 138.4 129.1 138.5 129.1C138.8 129.1 139.1 128.9 139.1 128.6L139.1 128.1C139.1 127.8 138.8 127.6 138.5 127.6L138.4 127.6 138 127.6 137.9 127.6C137.6 127.6 137.3 127.8 137.3 128.1L137.3 128.6C137.4 128.9 137.6 129.1 137.9 129.1Z" fill="#C00123"/><path d="M140.8 129.1 144.1 129.1C144.4 129.1 144.7 128.9 144.7 128.6L144.7 128.1C144.7 127.8 144.4 127.6 144.1 127.6L140.8 127.6C140.5 127.6 140.2 127.8 140.2 128.1L140.2 128.6C140.2 128.9 140.5 129.1 140.8 129.1Z" fill="#C00123"/><path d="M146.8 127.6 146.4 127.6C146.1 127.6 145.8 127.8 145.8 128.1L145.8 128.6C145.8 128.9 146.1 129.1 146.4 129.1L146.8 129.1C147.1 129.1 147.4 128.9 147.4 128.6L147.4 128.1C147.3 127.8 147.1 127.6 146.8 127.6Z" fill="#C00123"/><path d="M146.7 129.5 143.4 129.5C143.1 129.5 142.8 129.7 142.8 130L142.8 130.5C142.8 130.8 143.1 131 143.4 131L146.7 131C147 131 147.3 130.8 147.3 130.5L147.3 130C147.3 129.8 147 129.5 146.7 129.5Z" fill="#C00123"/><path d="M141.2 129.5 138.4 129.5 137.8 129.5 135 129.5C134.7 129.5 134.4 129.7 134.4 130L134.4 130.5C134.4 130.8 134.7 131 135 131L137.8 131 138.4 131 141.2 131C141.5 131 141.8 130.8 141.8 130.5L141.8 130C141.8 129.8 141.5 129.5 141.2 129.5Z" fill="#C00123"/></g></g><g><path d="M135.3 136.2 80.5 136.2C79.5 136.2 78.7 135.4 78.7 134.4L78.7 134.4C78.7 133.4 79.5 132.6 80.5 132.6L135.3 132.6C136.3 132.6 137.1 133.4 137.1 134.4L137.1 134.4C137.1 135.4 136.3 136.2 135.3 136.2Z" fill="#E7BDA9"/><path d="M133.3 132.6 82.6 132.6C81.9 132.6 81.3 131.8 81.3 130.8L81.3 130.8C81.3 129.8 81.9 129 82.6 129L133.3 129C134 129 134.6 129.8 134.6 130.8L134.6 130.8C134.5 131.8 134 132.6 133.3 132.6Z" fill="#FFECBE"/><path d="M130.2 129 85.6 129C84.6 129 83.8 128.2 83.8 127.2L83.8 127.2C83.8 126.2 84.6 125.4 85.6 125.4L130.2 125.4C131.2 125.4 132 126.2 132 127.2L132 127.2C132 128.3 131.2 129 130.2 129Z" fill="#E7BDA9"/></g><g><g><g><path d="M87.1 102.7 85 102.7C84.5 102.7 84.1 102.5 84 102.1L84 101.9C83.9 101.5 84.4 101.2 85 101.2L87.2 101.2C87.8 101.2 88.2 101.5 88.2 101.9L88.2 102C88.1 102.5 87.7 102.7 87.1 102.7Z" fill="#C00123"/></g><g><path d="M82.7 100.6 80.8 100.6C80.3 100.6 79.9 100.4 79.8 100L79.8 99.9C79.7 99.5 80.2 99.2 80.8 99.2L82.8 99.2C83.4 99.2 83.8 99.5 83.8 99.9L83.8 100C83.7 100.4 83.2 100.6 82.7 100.6Z" fill="#C00123"/></g><g><path d="M78.3 95.6 76 95.6C75.5 95.6 75.1 95.4 75 95L75 94.8C74.9 94.4 75.4 94.1 76 94.1L78.3 94.1C78.9 94.1 79.3 94.4 79.3 94.8L79.3 95C79.3 95.3 78.8 95.6 78.3 95.6Z" fill="#C00123"/></g><g><path d="M77.9 91.2 76.1 91.2C75.6 91.2 75.2 91 75.1 90.6L75.1 90.6C75 90.2 75.5 89.9 76.1 89.9L77.9 89.9C78.5 89.9 78.9 90.2 78.9 90.6L78.9 90.6C78.8 90.9 78.4 91.2 77.9 91.2Z" fill="#C00123"/></g></g><g><g><path d="M99.8 83.4 97.5 83.4C97 83.4 96.6 83.2 96.5 82.8L96.5 82.6C96.4 82.2 96.9 81.9 97.5 81.9L99.8 81.9C100.4 81.9 100.8 82.2 100.8 82.6L100.8 82.8C100.8 83.1 100.3 83.4 99.8 83.4Z" fill="#C00123"/></g><g><path d="M103.4 78.9 101.6 78.9C101.1 78.9 100.7 78.7 100.6 78.3L100.6 78.3C100.5 77.9 101 77.6 101.6 77.6L103.4 77.6C104 77.6 104.4 77.9 104.4 78.3L104.4 78.3C104.4 78.7 103.9 78.9 103.4 78.9Z" fill="#C00123"/></g><g><path d="M101.2 73.5 99 73.5C98.5 73.5 98.1 73.3 98 72.9L98 72.7C97.9 72.3 98.4 72 99 72L101.2 72C101.8 72 102.2 72.3 102.2 72.7L102.2 72.8C102.2 73.2 101.8 73.5 101.2 73.5Z" fill="#C00123"/></g><g><path d="M98 71.5 96.1 71.5C95.6 71.5 95.2 71.3 95.1 70.9L95.1 70.9C95 70.5 95.5 70.2 96.1 70.2L98 70.2C98.6 70.2 99 70.5 99 70.9L99 70.9C99 71.2 98.5 71.5 98 71.5Z" fill="#C00123"/></g><g><path d="M91.7 69.4 89.6 69.4C89.1 69.4 88.7 69.2 88.6 68.8L88.6 68.7C88.5 68.3 89 68 89.6 68L91.7 68C92.3 68 92.7 68.3 92.7 68.7L92.7 68.8C92.7 69.2 92.3 69.4 91.7 69.4Z" fill="#C00123"/></g></g><path d="M99.6 76.6 97.8 76.6C97.3 76.6 96.9 76.4 96.8 76L96.8 76C96.7 75.6 97.2 75.3 97.8 75.3L99.6 75.3C100.2 75.3 100.6 75.6 100.6 76L100.6 76C100.5 76.3 100.1 76.6 99.6 76.6Z" fill="#C00123"/><g><g><path d="M131.6 98.7 129.5 98.7C129 98.7 128.6 98.5 128.5 98.1L128.5 98C128.4 97.6 128.9 97.3 129.5 97.3L131.6 97.3C132.2 97.3 132.6 97.6 132.6 98L132.6 98.1C132.6 98.4 132.2 98.7 131.6 98.7Z" fill="#C00123"/></g><g><path d="M128.1 97 125.8 97C125.3 97 124.9 96.8 124.8 96.4L124.8 96.2C124.7 95.8 125.2 95.5 125.8 95.5L128.1 95.5C128.7 95.5 129.1 95.8 129.1 96.2L129.1 96.4C129.1 96.7 128.7 97 128.1 97Z" fill="#C00123"/></g><g><path d="M127.5 92.9 125.4 92.9C124.9 92.9 124.5 92.7 124.4 92.3L124.4 92.2C124.3 91.8 124.8 91.5 125.4 91.5L127.5 91.5C128.1 91.5 128.5 91.8 128.5 92.2L128.5 92.3C128.4 92.6 128 92.9 127.5 92.9Z" fill="#C00123"/></g><g><path d="M126.6 89.4 124.6 89.4C124.1 89.4 123.7 89.2 123.6 88.8L123.6 88.7C123.5 88.3 124 88 124.6 88L126.6 88C127.2 88 127.6 88.3 127.6 88.7L127.6 88.8C127.6 89.1 127.2 89.4 126.6 89.4Z" fill="#C00123"/></g><g><path d="M122.7 87.9 120.5 87.9C120 87.9 119.6 87.7 119.5 87.3L119.5 87.1C119.4 86.7 119.9 86.4 120.5 86.4L122.8 86.4C123.4 86.4 123.8 86.7 123.8 87.1L123.8 87.3C123.6 87.7 123.2 87.9 122.7 87.9Z" fill="#C00123"/></g><g><path d="M115.3 87.8 113 87.8C112.5 87.8 112.1 87.6 112 87.2L112 87C111.9 86.6 112.4 86.3 113 86.3L115.3 86.3C115.9 86.3 116.3 86.6 116.3 87L116.3 87.2C116.3 87.6 115.9 87.8 115.3 87.8Z" fill="#C00123"/></g></g><g><g><path d="M127.3 105.2 125.1 105.2C124.6 105.2 124.2 105 124.1 104.6L124.1 104.4C124 104 124.5 103.7 125.1 103.7L127.3 103.7C127.9 103.7 128.3 104 128.3 104.4L128.3 104.5C128.3 105 127.8 105.2 127.3 105.2Z" fill="#C00123"/></g><g><path d="M120.1 102.8 117.8 102.8C117.3 102.8 116.9 102.6 116.8 102.2L116.8 102C116.7 101.6 117.2 101.3 117.8 101.3L120.1 101.3C120.7 101.3 121.1 101.6 121.1 102L121.1 102.2C121.1 102.5 120.7 102.8 120.1 102.8Z" fill="#C00123"/></g></g><path d="M82 109.9 79.8 109.9C79.3 109.9 78.9 109.7 78.8 109.3L78.8 109.1C78.7 108.7 79.2 108.4 79.8 108.4L82 108.4C82.6 108.4 83 108.7 83 109.1L83 109.3C82.9 109.6 82.5 109.9 82 109.9Z" fill="#C00123"/><g><g><path d="M87 113 84.9 113C84.4 113 84 112.8 83.9 112.4L83.9 112.2C83.8 111.8 84.3 111.5 84.9 111.5L87.1 111.5C87.7 111.5 88.1 111.8 88.1 112.2L88.1 112.3C87.9 112.7 87.5 113 87 113Z" fill="#C00123"/></g><g><path d="M88.5 107.6 86.6 107.6C86.1 107.6 85.7 107.4 85.6 107L85.6 106.9C85.5 106.5 86 106.2 86.6 106.2L88.5 106.2C89.1 106.2 89.5 106.5 89.5 106.9L89.5 107C89.4 107.4 89 107.6 88.5 107.6Z" fill="#C00123"/></g></g><g><g><path d="M137.8 91 135.6 91C135.1 91 134.7 90.8 134.6 90.4L134.6 90.2C134.5 89.8 135 89.5 135.6 89.5L137.8 89.5C138.4 89.5 138.8 89.8 138.8 90.2L138.8 90.4C138.8 90.7 138.4 91 137.8 91Z" fill="#C00123"/></g><g><path d="M138.2 87.7 136.3 87.7C135.8 87.7 135.4 87.5 135.3 87.1L135.3 87C135.2 86.6 135.7 86.3 136.3 86.3L138.2 86.3C138.8 86.3 139.2 86.6 139.2 87L139.2 87C139.1 87.4 138.7 87.7 138.2 87.7Z" fill="#C00123"/></g><g><path d="M134.3 78.7 132.4 78.7C131.8 78.7 131.4 78.4 131.3 78.1L131.3 78.1C131.2 77.7 131.7 77.3 132.4 77.3L134.3 77.3C134.9 77.3 135.4 77.7 135.4 78.1L135.4 78.1C135.3 78.4 134.9 78.7 134.3 78.7Z" fill="#C00123"/></g></g><g><g><path d="M131.8 84.4 129.7 84.4C129.2 84.4 128.8 84.2 128.7 83.8L128.7 83.7C128.6 83.3 129.1 83 129.7 83L131.8 83C132.4 83 132.8 83.3 132.8 83.7L132.8 83.8C132.7 84.1 132.3 84.4 131.8 84.4Z" fill="#C00123"/></g><g><path d="M130.8 81.7 128.8 81.7C128.2 81.7 127.8 81.4 127.7 81.1L127.7 81.1C127.6 80.7 128.1 80.3 128.8 80.3L130.8 80.3C131.4 80.3 131.9 80.7 131.9 81.1L131.9 81.1C131.8 81.4 131.4 81.7 130.8 81.7Z" fill="#C00123"/></g><g><path d="M124.2 77.4 122.2 77.4C121.6 77.4 121.2 77.1 121.1 76.8L121.1 76.8C121 76.4 121.5 76 122.2 76L124.2 76C124.8 76 125.3 76.4 125.3 76.8L125.3 76.8C125.3 77.1 124.8 77.4 124.2 77.4Z" fill="#C00123"/></g></g><g><g><path d="M120 60 117.9 60C117.4 60 117 59.8 116.9 59.4L116.9 59.3C116.8 58.9 117.3 58.6 117.9 58.6L120 58.6C120.6 58.6 121 58.9 121 59.3L121 59.4C121 59.8 120.5 60 120 60Z" fill="#C00123"/></g><g><path d="M112.8 58.4 111 58.4C110.5 58.4 110.1 58.2 110 57.8L110 57.8C109.9 57.4 110.4 57.1 111 57.1L112.8 57.1C113.4 57.1 113.8 57.4 113.8 57.8L113.8 57.8C113.7 58.2 113.3 58.4 112.8 58.4Z" fill="#C00123"/></g><g><path d="M113.5 54.6 111.4 54.6C110.9 54.6 110.5 54.4 110.4 54L110.4 53.9C110.3 53.5 110.8 53.2 111.4 53.2L113.6 53.2C114.2 53.2 114.6 53.5 114.6 53.9L114.6 54C114.5 54.3 114 54.6 113.5 54.6Z" fill="#C00123"/></g><g><path d="M107.2 54 104.9 54C104.4 54 104 53.8 103.9 53.4L103.9 53.2C103.8 52.8 104.3 52.5 104.9 52.5L107.2 52.5C107.8 52.5 108.2 52.8 108.2 53.2L108.2 53.4C108.2 53.8 107.7 54 107.2 54Z" fill="#C00123"/></g></g><g><g><path d="M137.5 55.5 135.4 55.5C134.9 55.5 134.5 55.3 134.4 54.9L134.4 54.8C134.3 54.4 134.8 54.1 135.4 54.1L137.6 54.1C138.2 54.1 138.6 54.4 138.6 54.8L138.6 54.9C138.5 55.3 138 55.5 137.5 55.5Z" fill="#C00123"/></g><g><path d="M131.4 59 129.6 59C129.1 59 128.7 58.8 128.6 58.4L128.6 58.4C128.5 58 129 57.7 129.6 57.7L131.4 57.7C132 57.7 132.4 58 132.4 58.4L132.4 58.4C132.4 58.7 132 59 131.4 59Z" fill="#C00123"/></g><g><path d="M127.4 58.7 125.4 58.7C124.9 58.7 124.5 58.5 124.4 58.1L124.4 58C124.3 57.6 124.8 57.3 125.4 57.3L127.4 57.3C128 57.3 128.4 57.6 128.4 58L128.4 58.1C128.3 58.5 127.9 58.7 127.4 58.7Z" fill="#C00123"/></g><g><path d="M120 55.8 118.2 55.8C117.7 55.8 117.3 55.6 117.2 55.2L117.2 55.2C117.1 54.8 117.6 54.5 118.2 54.5L120 54.5C120.6 54.5 121 54.8 121 55.2L121 55.2C120.9 55.5 120.5 55.8 120 55.8Z" fill="#C00123"/></g></g><g><g><path d="M79.2 65.2 77.3 65.2C76.8 65.2 76.3 64.9 76.3 64.6L76.3 64.6C76.2 64.2 76.7 63.8 77.4 63.8L79.3 63.8C79.9 63.8 80.4 64.1 80.3 64.5L80.3 64.5C80.2 65 79.7 65.2 79.2 65.2Z" fill="#C00123"/></g><g><path d="M81 60.2 79.1 60.2C78.6 60.2 78.1 59.9 78.1 59.6L78.1 59.6C78 59.2 78.5 58.8 79.2 58.8L81.1 58.8C81.7 58.8 82.2 59.1 82.1 59.5L82.1 59.5C82 59.9 81.5 60.2 81 60.2Z" fill="#C00123"/></g><g><path d="M76 57.2 74.1 57.2C73.6 57.2 73.1 56.9 73.1 56.6L73.1 56.5C73 56.1 73.5 55.7 74.2 55.7L76.2 55.7C76.8 55.7 77.3 56 77.2 56.4L77.2 56.4C77 56.9 76.6 57.2 76 57.2Z" fill="#C00123"/></g></g><g><g><path d="M92.8 57.8 90.8 57.8C90.3 57.8 89.8 57.5 89.8 57.2L89.8 57.1C89.7 56.7 90.2 56.3 90.9 56.3L92.9 56.3C93.5 56.3 94 56.6 93.9 57L93.9 57.1C93.8 57.5 93.3 57.8 92.8 57.8Z" fill="#C00123"/></g><g><path d="M85 54.9 82.8 54.9C82.3 54.9 81.8 54.6 81.8 54.3L81.8 54.2C81.7 53.8 82.2 53.4 82.9 53.4L85.1 53.4C85.7 53.4 86.2 53.7 86.1 54.1L86.1 54.2C86 54.7 85.5 54.9 85 54.9Z" fill="#C00123"/></g></g><g><g><path d="M105.7 88.8 103.8 88.8C103.3 88.8 102.9 88.6 102.8 88.2L102.8 88.1C102.7 87.7 103.2 87.4 103.8 87.4L105.7 87.4C106.3 87.4 106.7 87.7 106.7 88.1L106.7 88.2C106.6 88.6 106.2 88.8 105.7 88.8Z" fill="#C00123"/></g><g><path d="M101.1 87.4 99 87.4C98.5 87.4 98.1 87.2 98 86.8L98 86.7C97.9 86.3 98.4 86 99 86L101.1 86C101.7 86 102.1 86.3 102.1 86.7L102.1 86.8C102 87.1 101.6 87.4 101.1 87.4Z" fill="#C00123"/></g><g><path d="M94.1 85.7 92.2 85.7C91.7 85.7 91.3 85.5 91.2 85.1L91.2 85.1C91.1 84.7 91.6 84.4 92.2 84.4L94.1 84.4C94.7 84.4 95.1 84.7 95.1 85.1L95.1 85.1C95 85.4 94.6 85.7 94.1 85.7Z" fill="#C00123"/></g><g><path d="M96.9 82 94.7 82C94.2 82 93.8 81.8 93.7 81.4L93.7 81.2C93.6 80.8 94.1 80.5 94.7 80.5L97 80.5C97.6 80.5 98 80.8 98 81.2L98 81.4C97.8 81.8 97.4 82 96.9 82Z" fill="#C00123"/></g><g><path d="M90.3 78.9 88.3 78.9C87.8 78.9 87.4 78.7 87.3 78.3L87.3 78.2C87.2 77.8 87.7 77.5 88.3 77.5L90.3 77.5C90.9 77.5 91.3 77.8 91.3 78.2L91.3 78.3C91.3 78.7 90.8 78.9 90.3 78.9Z" fill="#C00123"/></g></g><g><g><path d="M130.7 112.8 128.9 112.8C128.4 112.8 128 112.6 127.9 112.2L127.9 112.2C127.8 111.8 128.3 111.5 128.9 111.5L130.7 111.5C131.3 111.5 131.7 111.8 131.7 112.2L131.7 112.2C131.7 112.5 131.2 112.8 130.7 112.8Z" fill="#C00123"/></g><g><path d="M128.4 114 126.1 114C125.6 114 125.2 113.8 125.1 113.4L125.1 113.2C125 112.8 125.5 112.5 126.1 112.5L128.5 112.5C129.1 112.5 129.5 112.8 129.5 113.2L129.5 113.4C129.3 113.8 128.9 114 128.4 114Z" fill="#C00123"/></g><g><path d="M123.2 110.6 121.3 110.6C120.8 110.6 120.4 110.4 120.3 110L120.3 109.9C120.2 109.5 120.7 109.2 121.3 109.2L123.2 109.2C123.8 109.2 124.2 109.5 124.2 109.9L124.2 109.9C124.2 110.3 123.8 110.6 123.2 110.6Z" fill="#C00123"/></g></g><g><g><path d="M113.9 113.3 112.1 113.3C111.6 113.3 111.2 113.1 111.1 112.7L111.1 112.7C111 112.3 111.5 112 112.1 112L113.9 112C114.5 112 114.9 112.3 114.9 112.7L114.9 112.7C114.8 113 114.4 113.3 113.9 113.3Z" fill="#C00123"/></g><g><path d="M107.5 113.6 105.2 113.6C104.7 113.6 104.3 113.4 104.2 113L104.2 112.8C104.1 112.4 104.6 112.1 105.2 112.1L107.5 112.1C108.1 112.1 108.5 112.4 108.5 112.8L108.5 113C108.5 113.4 108.1 113.6 107.5 113.6Z" fill="#C00123"/></g></g></g><g><g><path d="M143.7 74C143.7 74 143.1 74 142.2 74 140.2 74 136.2 74 134.1 74 133.1 74 132.5 74 132.5 74 132.5 74 132.5 73.5 132.5 72.6 132.5 70.7 132.5 66.9 132.5 63.6 132.5 59.5 132.5 56 132.5 56 132.5 56 133.1 56 134.1 56 136.2 56 140.2 56 142.2 56 143.1 56 143.7 56 143.7 56 143.7 56 143.7 59.5 143.7 63.6 143.7 66.9 143.7 70.7 143.7 72.6 143.7 73.4 143.7 74 143.7 74Z" fill="#EDDBA8"/><path d="M143.7 76.6C143.7 77.1 143.3 77.5 142.8 77.5L142.2 77.5C140.2 77.5 136.2 77.5 134.1 77.5L133.4 77.5C132.9 77.5 132.5 77.1 132.5 76.6L132.5 76.6C132.5 76.1 132.9 75.7 133.4 75.7L134.1 75.7C136.2 75.7 140.2 75.7 142.2 75.7L142.8 75.7C143.3 75.7 143.7 76.1 143.7 76.6L143.7 76.6Z" fill="#D4A781"/><path d="M143.7 58.8C143.7 59.2 143.4 59.5 143 59.5L142.3 59.5C140.3 59.5 136.3 59.5 134.2 59.5L133.3 59.5C132.9 59.5 132.6 59.2 132.6 58.8L132.6 58.8 132.6 56C132.6 56 133.2 56 134.2 56 136.3 56 140.3 56 142.3 56 143.2 56 143.8 56 143.8 56L143.8 58.8Z" fill="#ECB07D"/><path d="M144.7 74.8C144.7 75.3 144.3 75.7 143.8 75.7L142.2 75.7C139.9 75.7 136.4 75.7 134.1 75.7L132.4 75.7C131.9 75.7 131.5 75.3 131.5 74.8L131.5 74.8C131.5 74.3 131.9 73.9 132.4 73.9L134.1 73.9C136.4 73.9 140 73.9 142.2 73.9L143.8 73.9C144.3 74 144.7 74.3 144.7 74.8L144.7 74.8Z" fill="#FBF4D5"/><path d="M144.7 55.1C144.7 55.6 144.3 56 143.8 56L142.2 56C139.9 56 136.4 56 134.1 56L132.4 56C131.9 56 131.5 55.6 131.5 55.1L131.5 55.1C131.5 54.6 131.9 54.2 132.4 54.2L134.1 54.2C136.4 54.2 140 54.2 142.2 54.2L143.8 54.2C144.3 54.2 144.7 54.6 144.7 55.1L144.7 55.1Z" fill="#FBF4D5"/><path d="M133.8 72.9C133.8 72.9 133.9 72.9 134.1 72.9 135.4 72.9 141.2 72.9 142.2 72.9 142.3 72.9 142.4 72.9 142.4 72.9 142.4 72.9 142.4 72.8 142.4 72.5 142.4 71.3 142.4 67.1 142.4 63.5 142.4 60.2 142.4 57.4 142.4 57.4 142.4 57.4 142.3 57.4 142.2 57.4 141.2 57.4 135.4 57.4 134.1 57.4 133.9 57.4 133.8 57.4 133.8 57.4 133.8 57.4 133.8 60.2 133.8 63.5 133.8 67.1 133.8 71.3 133.8 72.5 133.8 72.8 133.8 72.9 133.8 72.9Z" fill="#0A7F88"/><path d="M142.4 62.8C142.4 62.8 142.3 62.8 142.2 62.8 141.2 62.8 135.4 62.8 134.1 62.8 133.9 62.8 133.8 62.8 133.8 62.8L133.8 61.7C133.8 61.7 133.9 61.7 134.1 61.7 135.4 61.7 141.2 61.7 142.2 61.7 142.3 61.7 142.4 61.7 142.4 61.7L142.4 62.8Z" fill="#EDDBA8"/><path d="M138.4 62.6C138.4 62.6 138.4 63 138.4 63.6 138.4 65.6 138.4 70.6 138.4 72.6 138.4 73.2 138.4 73.6 138.4 73.6L137.8 73.6C137.8 73.6 137.8 73.2 137.8 72.6 137.8 70.6 137.8 65.6 137.8 63.6 137.8 63 137.8 62.6 137.8 62.6L138.4 62.6Z" fill="#EDDBA8"/></g><g><path d="M143.7 102.6C143.7 102.6 143.1 102.6 142.2 102.6 140.2 102.6 136.2 102.6 134.1 102.6 133.1 102.6 132.5 102.6 132.5 102.6 132.5 102.6 132.5 102.1 132.5 101.2 132.5 99.3 132.5 95.5 132.5 92.2 132.5 88.1 132.5 84.6 132.5 84.6 132.5 84.6 133.1 84.6 134.1 84.6 136.2 84.6 140.2 84.6 142.2 84.6 143.1 84.6 143.7 84.6 143.7 84.6 143.7 84.6 143.7 88.1 143.7 92.2 143.7 95.5 143.7 99.3 143.7 101.2 143.7 102.1 143.7 102.6 143.7 102.6Z" fill="#EDDBA8"/><path d="M143.7 105.3C143.7 105.8 143.3 106.2 142.8 106.2L142.2 106.2C140.2 106.2 136.2 106.2 134.1 106.2L133.4 106.2C132.9 106.2 132.5 105.8 132.5 105.3L132.5 105.3C132.5 104.8 132.9 104.4 133.4 104.4L134.1 104.4C136.2 104.4 140.2 104.4 142.2 104.4L142.8 104.4C143.3 104.4 143.7 104.8 143.7 105.3L143.7 105.3Z" fill="#D4A781"/><path d="M143.7 87.5C143.7 87.9 143.4 88.2 143 88.2L142.3 88.2C140.3 88.2 136.3 88.2 134.2 88.2L133.3 88.2C132.9 88.2 132.6 87.9 132.6 87.5L132.6 87.5 132.6 84.7C132.6 84.7 133.2 84.7 134.2 84.7 136.3 84.7 140.3 84.7 142.3 84.7 143.2 84.7 143.8 84.7 143.8 84.7L143.8 87.5Z" fill="#ECB07D"/><path d="M144.7 103.5C144.7 104 144.3 104.4 143.8 104.4L142.2 104.4C139.9 104.4 136.4 104.4 134.1 104.4L132.4 104.4C131.9 104.4 131.5 104 131.5 103.5L131.5 103.5C131.5 103 131.9 102.6 132.4 102.6L134.1 102.6C136.4 102.6 140 102.6 142.2 102.6L143.8 102.6C144.3 102.6 144.7 103 144.7 103.5L144.7 103.5Z" fill="#FBF4D5"/><path d="M144.7 83.7C144.7 84.2 144.3 84.6 143.8 84.6L142.2 84.6C139.9 84.6 136.4 84.6 134.1 84.6L132.4 84.6C131.9 84.6 131.5 84.2 131.5 83.7L131.5 83.7C131.5 83.2 131.9 82.8 132.4 82.8L134.1 82.8C136.4 82.8 140 82.8 142.2 82.8L143.8 82.8C144.3 82.8 144.7 83.2 144.7 83.7L144.7 83.7Z" fill="#FBF4D5"/><path d="M133.8 101.5C133.8 101.5 133.9 101.5 134.1 101.5 135.4 101.5 141.2 101.5 142.2 101.5 142.3 101.5 142.4 101.5 142.4 101.5 142.4 101.5 142.4 101.4 142.4 101.1 142.4 99.9 142.4 95.7 142.4 92.1 142.4 88.8 142.4 86 142.4 86 142.4 86 142.3 86 142.2 86 141.2 86 135.4 86 134.1 86 133.9 86 133.8 86 133.8 86 133.8 86 133.8 88.8 133.8 92.1 133.8 95.7 133.8 99.9 133.8 101.1 133.8 101.4 133.8 101.5 133.8 101.5Z" fill="#0A7F88"/><path d="M142.4 91.4C142.4 91.4 142.3 91.4 142.2 91.4 141.2 91.4 135.4 91.4 134.1 91.4 133.9 91.4 133.8 91.4 133.8 91.4L133.8 90.3C133.8 90.3 133.9 90.3 134.1 90.3 135.4 90.3 141.2 90.3 142.2 90.3 142.3 90.3 142.4 90.3 142.4 90.3L142.4 91.4Z" fill="#EDDBA8"/><path d="M138.4 91.2C138.4 91.2 138.4 91.6 138.4 92.2 138.4 94.2 138.4 99.2 138.4 101.2 138.4 101.8 138.4 102.2 138.4 102.2L137.8 102.2C137.8 102.2 137.8 101.8 137.8 101.2 137.8 99.2 137.8 94.2 137.8 92.2 137.8 91.6 137.8 91.2 137.8 91.2L138.4 91.2Z" fill="#EDDBA8"/></g><g><path d="M84.5 74C84.5 74 83.9 74 83 74 81 74 77 74 74.9 74 73.9 74 73.3 74 73.3 74 73.3 74 73.3 73.5 73.3 72.6 73.3 70.7 73.3 66.9 73.3 63.6 73.3 59.5 73.3 56 73.3 56 73.3 56 73.9 56 74.9 56 77 56 81 56 83 56 83.9 56 84.5 56 84.5 56 84.5 56 84.5 59.5 84.5 63.6 84.5 66.9 84.5 70.7 84.5 72.6 84.5 73.4 84.5 74 84.5 74Z" fill="#EDDBA8"/><path d="M84.5 76.6C84.5 77.1 84.1 77.5 83.6 77.5L83 77.5C81 77.5 77 77.5 74.9 77.5L74.2 77.5C73.7 77.5 73.3 77.1 73.3 76.6L73.3 76.6C73.3 76.1 73.7 75.7 74.2 75.7L74.9 75.7C77 75.7 81 75.7 83 75.7L83.6 75.7C84.1 75.7 84.5 76.1 84.5 76.6L84.5 76.6Z" fill="#D4A781"/><path d="M84.5 58.8C84.5 59.2 84.2 59.5 83.8 59.5L83 59.5C81 59.5 77 59.5 74.9 59.5L74 59.5C73.6 59.5 73.3 59.2 73.3 58.8L73.3 58.8 73.3 56C73.3 56 73.9 56 74.9 56 77 56 81 56 83 56 83.9 56 84.5 56 84.5 56L84.5 58.8Z" fill="#ECB07D"/><path d="M85.5 74.8C85.5 75.3 85.1 75.7 84.6 75.7L83 75.7C80.7 75.7 77.2 75.7 74.9 75.7L73.2 75.7C72.7 75.7 72.3 75.3 72.3 74.8L72.3 74.8C72.3 74.3 72.7 73.9 73.2 73.9L74.9 73.9C77.2 73.9 80.8 73.9 83 73.9L84.6 73.9C85.1 74 85.5 74.3 85.5 74.8L85.5 74.8Z" fill="#FBF4D5"/><path d="M85.5 55.1C85.5 55.6 85.1 56 84.6 56L83 56C80.7 56 77.2 56 74.9 56L73.2 56C72.7 56 72.3 55.6 72.3 55.1L72.3 55.1C72.3 54.6 72.7 54.2 73.2 54.2L74.9 54.2C77.2 54.2 80.8 54.2 83 54.2L84.6 54.2C85.1 54.2 85.5 54.6 85.5 55.1L85.5 55.1Z" fill="#FBF4D5"/><path d="M74.6 72.9C74.6 72.9 74.7 72.9 74.9 72.9 76.2 72.9 82 72.9 83 72.9 83.1 72.9 83.2 72.9 83.2 72.9 83.2 72.9 83.2 72.8 83.2 72.5 83.2 71.3 83.2 67.1 83.2 63.5 83.2 60.2 83.2 57.4 83.2 57.4 83.2 57.4 83.1 57.4 83 57.4 82 57.4 76.2 57.4 74.9 57.4 74.7 57.4 74.6 57.4 74.6 57.4 74.6 57.4 74.6 60.2 74.6 63.5 74.6 67.1 74.6 71.3 74.6 72.5 74.6 72.8 74.6 72.9 74.6 72.9Z" fill="#0A7F88"/><path d="M83.2 62.8C83.2 62.8 83.1 62.8 83 62.8 82 62.8 76.2 62.8 74.9 62.8 74.7 62.8 74.6 62.8 74.6 62.8L74.6 61.7C74.6 61.7 74.7 61.7 74.9 61.7 76.2 61.7 82 61.7 83 61.7 83.1 61.7 83.2 61.7 83.2 61.7L83.2 62.8Z" fill="#EDDBA8"/><path d="M79.2 62.6C79.2 62.6 79.2 63 79.2 63.6 79.2 65.6 79.2 70.6 79.2 72.6 79.2 73.2 79.2 73.6 79.2 73.6L78.6 73.6C78.6 73.6 78.6 73.2 78.6 72.6 78.6 70.6 78.6 65.6 78.6 63.6 78.6 63 78.6 62.6 78.6 62.6L79.2 62.6Z" fill="#EDDBA8"/></g><g><path d="M84.5 102.6C84.5 102.6 83.9 102.6 83 102.6 81 102.6 77 102.6 74.9 102.6 73.9 102.6 73.3 102.6 73.3 102.6 73.3 102.6 73.3 102.1 73.3 101.2 73.3 99.3 73.3 95.5 73.3 92.2 73.3 88.1 73.3 84.6 73.3 84.6 73.3 84.6 73.9 84.6 74.9 84.6 77 84.6 81 84.6 83 84.6 83.9 84.6 84.5 84.6 84.5 84.6 84.5 84.6 84.5 88.1 84.5 92.2 84.5 95.5 84.5 99.3 84.5 101.2 84.5 102.1 84.5 102.6 84.5 102.6Z" fill="#EDDBA8"/><path d="M84.5 105.3C84.5 105.8 84.1 106.2 83.6 106.2L83 106.2C81 106.2 77 106.2 74.9 106.2L74.2 106.2C73.7 106.2 73.3 105.8 73.3 105.3L73.3 105.3C73.3 104.8 73.7 104.4 74.2 104.4L74.9 104.4C77 104.4 81 104.4 83 104.4L83.6 104.4C84.1 104.4 84.5 104.8 84.5 105.3L84.5 105.3Z" fill="#D4A781"/><path d="M84.5 87.5C84.5 87.9 84.2 88.2 83.8 88.2L83 88.2C81 88.2 77 88.2 74.9 88.2L74 88.2C73.6 88.2 73.3 87.9 73.3 87.5L73.3 87.5 73.3 84.7C73.3 84.7 73.9 84.7 74.9 84.7 77 84.7 81 84.7 83 84.7 83.9 84.7 84.5 84.7 84.5 84.7L84.5 87.5Z" fill="#ECB07D"/><path d="M85.5 103.5C85.5 104 85.1 104.4 84.6 104.4L83 104.4C80.7 104.4 77.2 104.4 74.9 104.4L73.2 104.4C72.7 104.4 72.3 104 72.3 103.5L72.3 103.5C72.3 103 72.7 102.6 73.2 102.6L74.9 102.6C77.2 102.6 80.8 102.6 83 102.6L84.6 102.6C85.1 102.6 85.5 103 85.5 103.5L85.5 103.5Z" fill="#FBF4D5"/><path d="M85.5 83.7C85.5 84.2 85.1 84.6 84.6 84.6L83 84.6C80.7 84.6 77.2 84.6 74.9 84.6L73.2 84.6C72.7 84.6 72.3 84.2 72.3 83.7L72.3 83.7C72.3 83.2 72.7 82.8 73.2 82.8L74.9 82.8C77.2 82.8 80.8 82.8 83 82.8L84.6 82.8C85.1 82.8 85.5 83.2 85.5 83.7L85.5 83.7Z" fill="#FBF4D5"/><path d="M74.6 101.5C74.6 101.5 74.7 101.5 74.9 101.5 76.2 101.5 82 101.5 83 101.5 83.1 101.5 83.2 101.5 83.2 101.5 83.2 101.5 83.2 101.4 83.2 101.1 83.2 99.9 83.2 95.7 83.2 92.1 83.2 88.8 83.2 86 83.2 86 83.2 86 83.1 86 83 86 82 86 76.2 86 74.9 86 74.7 86 74.6 86 74.6 86 74.6 86 74.6 88.8 74.6 92.1 74.6 95.7 74.6 99.9 74.6 101.1 74.6 101.4 74.6 101.5 74.6 101.5Z" fill="#0A7F88"/><path d="M83.2 91.4C83.2 91.4 83.1 91.4 83 91.4 82 91.4 76.2 91.4 74.9 91.4 74.7 91.4 74.6 91.4 74.6 91.4L74.6 90.3C74.6 90.3 74.7 90.3 74.9 90.3 76.2 90.3 82 90.3 83 90.3 83.1 90.3 83.2 90.3 83.2 90.3L83.2 91.4Z" fill="#EDDBA8"/><path d="M79.2 91.2C79.2 91.2 79.2 91.6 79.2 92.2 79.2 94.2 79.2 99.2 79.2 101.2 79.2 101.8 79.2 102.2 79.2 102.2L78.6 102.2C78.6 102.2 78.6 101.8 78.6 101.2 78.6 99.2 78.6 94.2 78.6 92.2 78.6 91.6 78.6 91.2 78.6 91.2L79.2 91.2Z" fill="#EDDBA8"/></g></g><g><linearGradient x1="84.7125" y1="107.857" x2="108.222" y2="107.857" gradientUnits="userSpaceOnUse" id="SVGID_36_"><stop offset="0" stop-color="#C80610"/><stop offset="0.0682853" stop-color="#D41116"/><stop offset="0.2166" stop-color="#E7231F"/><stop offset="0.3887" stop-color="#F53026"/><stop offset="0.6041" stop-color="#FD382A"/><stop offset="1" stop-color="#FF3A2B"/></linearGradient><linearGradient x1="97.5019" y1="87.351" x2="96.0019" y2="125.601" gradientUnits="userSpaceOnUse" id="SVGID_37_"><stop offset="0" stop-color="#FFB754"/><stop offset="1" stop-color="#E84C1E"/></linearGradient><path d="M96.6 89.8 96.7 89.8C90.1 89.8 84.7 94.3 84.7 101.6L84.7 125.8 108.2 125.8 108.2 101.6C108.2 94.4 103.2 89.8 96.6 89.8Z" fill="url(#SVGID_36_)"/><path d="M87.1 125.9 87.1 101.8C87.1 96.7 91.2 92.6 96.4 92.6 101.6 92.6 105.7 96.7 105.7 101.8L105.7 125.9 87.1 125.9Z" fill="url(#SVGID_37_)"/><g><path d="M96.5 94.6C92.5 94.6 89.3 97.8 89.3 101.7L103.8 101.7C103.7 97.8 100.5 94.6 96.5 94.6Z" fill="#0A7F88"/><path d="M96.5 95.4C93 95.4 90.1 98.3 90.1 101.6L102.8 101.6C102.8 98.2 100 95.4 96.5 95.4Z" fill="#0B9CAB"/><path d="M93.6 124.6 91.2 124.6C90.1 124.6 89.2 123.7 89.2 122.7L89.2 105.5C89.2 104.4 90.1 103.6 91.2 103.6L93.6 103.6C94.7 103.6 95.6 104.5 95.6 105.5L95.6 122.7C95.6 123.7 94.7 124.6 93.6 124.6Z" fill="#0A7F88"/><path d="M93.5 123.5 91.4 123.5C90.4 123.5 89.6 122.7 89.6 121.7L89.6 106.2C89.6 105.2 90.4 104.4 91.4 104.4L93.5 104.4C94.5 104.4 95.3 105.2 95.3 106.2L95.3 121.7C95.2 122.7 94.4 123.5 93.5 123.5Z" fill="#0B9CAB"/><path d="M97.4 122.6 97.4 105.4C97.4 104.3 98.3 103.5 99.4 103.5L101.8 103.5C102.9 103.5 103.8 104.4 103.8 105.4L103.8 122.6C103.8 123.7 102.9 124.5 101.8 124.5L99.4 124.5C98.3 124.6 97.4 123.7 97.4 122.6Z" fill="#0A7F88"/><path d="M97.6 122 97.6 106C97.6 105 98.4 104.2 99.5 104.2L101.7 104.2C102.7 104.2 103.6 105 103.6 106L103.6 122C103.6 123 102.8 123.8 101.7 123.8L99.5 123.8C98.4 123.8 97.6 123 97.6 122Z" fill="#0B9CAB"/></g></g><g><linearGradient x1="106.546" y1="107.857" x2="130.055" y2="107.857" gradientUnits="userSpaceOnUse" id="SVGID_38_"><stop offset="0" stop-color="#C80610"/><stop offset="0.0682853" stop-color="#D41116"/><stop offset="0.2166" stop-color="#E7231F"/><stop offset="0.3887" stop-color="#F53026"/><stop offset="0.6041" stop-color="#FD382A"/><stop offset="1" stop-color="#FF3A2B"/></linearGradient><linearGradient x1="119.302" y1="88.2059" x2="117.802" y2="126.456" gradientUnits="userSpaceOnUse" id="SVGID_39_"><stop offset="0" stop-color="#FFB754"/><stop offset="1" stop-color="#E84C1E"/></linearGradient><path d="M118.4 89.8 118.5 89.8C111.9 89.8 106.5 94.3 106.5 101.6L106.5 125.8 130 125.8 130 101.6C130.1 94.4 125 89.8 118.4 89.8Z" fill="url(#SVGID_38_)"/><path d="M109 125.9 109 101.8C109 96.7 113.1 92.6 118.3 92.6 123.5 92.6 127.6 96.7 127.6 101.8L127.6 125.9 109 125.9Z" fill="url(#SVGID_39_)"/><g><path d="M118.3 94.6C114.3 94.6 111.1 97.8 111.1 101.7L125.6 101.7C125.5 97.8 122.3 94.6 118.3 94.6Z" fill="#0A7F88"/><path d="M118.3 95.4C114.8 95.4 111.9 98.3 111.9 101.6L124.6 101.6C124.7 98.2 121.8 95.4 118.3 95.4Z" fill="#0B9CAB"/><path d="M115.4 124.6 113 124.6C111.9 124.6 111 123.7 111 122.7L111 105.5C111 104.4 111.9 103.6 113 103.6L115.4 103.6C116.5 103.6 117.4 104.5 117.4 105.5L117.4 122.7C117.4 123.7 116.5 124.6 115.4 124.6Z" fill="#0A7F88"/><path d="M115.3 123.5 113.2 123.5C112.2 123.5 111.4 122.7 111.4 121.7L111.4 106.2C111.4 105.2 112.2 104.4 113.2 104.4L115.3 104.4C116.3 104.4 117.1 105.2 117.1 106.2L117.1 121.7C117.1 122.7 116.3 123.5 115.3 123.5Z" fill="#0B9CAB"/><path d="M119.2 122.6 119.2 105.4C119.2 104.3 120.1 103.5 121.2 103.5L123.6 103.5C124.7 103.5 125.6 104.4 125.6 105.4L125.6 122.6C125.6 123.7 124.7 124.5 123.6 124.5L121.2 124.5C120.1 124.6 119.2 123.7 119.2 122.6Z" fill="#0A7F88"/><path d="M119.4 122 119.4 106C119.4 105 120.2 104.2 121.3 104.2L123.5 104.2C124.5 104.2 125.4 105 125.4 106L125.4 122C125.4 123 124.6 123.8 123.5 123.8L121.3 123.8C120.2 123.8 119.4 123 119.4 122Z" fill="#0B9CAB"/></g></g><g><g><path d="M123 90 94.6 90C92.3 90 90.3 88.3 90.3 86.2L89.6 54.8C89.5 52.6 91.5 50.9 93.9 50.9L123.8 50.9C126.2 50.9 128.2 52.7 128.1 54.8L127.4 86.2C127.3 88.3 125.4 90 123 90Z" fill="#FFECBE"/></g><g><path d="M92.6 84.6 91.9 56.4C91.8 54.2 93.8 52.5 96.2 52.5L121.4 52.5C123.8 52.5 125.8 54.3 125.7 56.4L125 84.6C125 86.7 123 88.4 120.7 88.4L96.9 88.4C94.5 88.4 92.6 86.7 92.6 84.6Z" fill="#ECB07D"/></g><g><path d="M93.5 84 92.9 57.1C92.8 54.9 94.8 53.2 97.2 53.2L120.6 53.2C123 53.2 125 55 124.9 57.1L124.2 84C124.2 86.1 122.2 87.8 119.9 87.8L97.8 87.8C95.4 87.8 93.5 86.1 93.5 84Z" fill="#0A7F88"/></g><g><path d="M95.2 60.6 96.4 82.9C96.5 84.9 98.4 86.6 100.7 86.6L117 86.6C119.3 86.6 121.2 85 121.3 82.9L122.4 61.2C122.5 59.1 120.7 57.3 118.3 57.2L99.7 56.5C97.1 56.5 95.1 58.3 95.2 60.6Z" fill="#0B9CAB"/></g><g><rect x="101.3" y="52.8" width="0.6" height="35.3" fill="#F9CE8F"/></g><g><rect x="115.6" y="52.8" width="0.6" height="35.3" fill="#F9CE8F"/></g><g><rect x="92.7" y="66.2" width="32.5" height="0.5" fill="#F9CE8F"/></g><g><rect x="92.7" y="78.1" width="32.5" height="0.5" fill="#F9CE8F"/></g></g></g></svg>